<?xml version="1.0" encoding="UTF-8"?>
<svg version="1.1" xmlns="http://www.w3.org/2000/svg" width="742" height="371">
<path d="M0 0 C244.86 0 489.72 0 742 0 C742 122.43 742 244.86 742 371 C497.14 371 252.28 371 0 371 C0 248.57 0 126.14 0 0 Z " fill="#040046" transform="translate(0,0)"/>
<path d="M0 0 C136.95 0 273.9 0 415 0 C412.76507439 10.05716523 412.76507439 10.05716523 410.984375 14.8125 C410.62085938 15.82570312 410.25734375 16.83890625 409.8828125 17.8828125 C409.12576475 19.96599906 408.3548304 22.04418986 407.5703125 24.1171875 C405.16373754 30.92138864 404.59211063 35.206714 407 42 C407.30679687 42.95616211 407.61359375 43.91232422 407.9296875 44.89746094 C408.9602522 48.06942019 410.0357586 51.22274308 411.125 54.375 C411.86092539 56.50638254 412.59289187 58.6391374 413.3203125 60.7734375 C413.64273926 61.70591309 413.96516602 62.63838867 414.29736328 63.59912109 C415 66 415 66 415 69 C278.05 69 141.1 69 0 69 C2.23917393 58.92371733 2.23917393 58.92371733 3.98046875 54.37109375 C4.33947266 53.39849609 4.69847656 52.42589844 5.06835938 51.42382812 C5.81718744 49.42564643 6.57508067 47.43083954 7.34179688 45.43945312 C11.49195535 34.08865671 8.43349017 26.69636114 4.4375 15.6875 C3.59872849 13.35955903 2.76389542 11.03019407 1.93359375 8.69921875 C1.56290771 7.67658936 1.19222168 6.65395996 0.81030273 5.6003418 C0 3 0 3 0 0 Z " fill="#6799F0" transform="translate(90,196)"/>
<path d="M0 0 C2.99639751 1.03285319 4.45809777 2.07985092 6.61035156 4.38037109 C7.50367188 5.3065625 7.50367188 5.3065625 8.41503906 6.25146484 C9.73535156 7.94287109 9.73535156 7.94287109 9.73535156 9.94287109 C10.72535156 10.27287109 11.71535156 10.60287109 12.73535156 10.94287109 C14.21899414 12.45393372 14.21899414 12.45393372 15.81738281 14.40698242 C20.06837218 19.41372951 24.71675051 23.94164981 29.42285156 28.51708984 C31.27384974 30.33600083 33.12408865 32.15568475 34.97363281 33.97607422 C37.86722608 36.82163876 40.76533306 39.66221659 43.67822266 42.48803711 C46.50511405 45.23141685 49.30794413 47.99869696 52.11035156 50.76708984 C52.99037842 51.61301193 53.87040527 52.45893402 54.77709961 53.33049011 C55.97459839 54.52246758 55.97459839 54.52246758 57.19628906 55.73852539 C58.26049072 56.77821724 58.26049072 56.77821724 59.34619141 57.83891296 C60.73535156 59.94287109 60.73535156 59.94287109 60.61833191 62.51249695 C59.72722592 64.96523665 58.97198247 66.20731346 57.14672852 68.03320312 C56.60558914 68.58372345 56.06444977 69.13424377 55.50691223 69.70144653 C54.91843002 70.27869476 54.32994781 70.85594299 53.72363281 71.45068359 C53.11778854 72.05798309 52.51194427 72.66528259 51.88774109 73.29098511 C50.60551532 74.57155336 49.31834098 75.84718315 48.02661133 77.11816406 C46.0600117 79.0558895 44.11265904 81.01149643 42.16699219 82.97021484 C40.91614738 84.2148193 39.66422826 85.45834517 38.41113281 86.70068359 C37.83277176 87.28198029 37.25441071 87.86327698 36.65852356 88.46218872 C32.74855649 92.28310087 28.89897232 95.51903673 23.28613281 96.27099609 C22.5475 96.24521484 21.80886719 96.21943359 21.04785156 96.19287109 C20.30148437 96.17740234 19.55511719 96.16193359 18.78613281 96.14599609 C16.73535156 95.94287109 16.73535156 95.94287109 13.73535156 94.94287109 C13.70957031 95.91740234 13.68378906 96.89193359 13.65722656 97.89599609 C13.28866358 107.99681141 12.19849625 117.93351082 10.79785156 127.94287109 C10.62801758 129.1897168 10.45818359 130.4365625 10.28320312 131.72119141 C10.11401367 132.8874707 9.94482422 134.05375 9.77050781 135.25537109 C9.61976807 136.30337891 9.46902832 137.35138672 9.3137207 138.43115234 C8.73535156 140.94287109 8.73535156 140.94287109 6.73535156 142.94287109 C4.43984453 143.53074033 2.11839775 144.01839542 -0.20996094 144.45849609 C-0.91923737 144.59472382 -1.62851379 144.73095154 -2.35928345 144.87130737 C-4.70140047 145.31921274 -7.04544699 145.75601817 -9.38964844 146.19287109 C-11.02291566 146.50322706 -12.65605247 146.81427012 -14.2890625 147.12597656 C-19.27891668 148.07575203 -24.27140515 149.01109826 -29.26464844 149.94287109 C-30.01331177 150.08269409 -30.7619751 150.22251709 -31.5333252 150.36657715 C-35.03033894 151.01956438 -38.52749528 151.67178687 -42.0246582 152.32397461 C-42.6860379 152.44733185 -43.3474176 152.57068909 -44.02883911 152.69778442 C-45.35142971 152.9442699 -46.67408185 153.19042534 -47.99679565 153.43624878 C-59.70117619 155.612807 -71.3606843 157.97340292 -83.00170898 160.46557617 C-87.25018556 161.36165684 -91.15744652 162.08091661 -95.51464844 162.06787109 C-96.38605469 162.07044922 -97.25746094 162.07302734 -98.15527344 162.07568359 C-100.26464844 161.94287109 -100.26464844 161.94287109 -101.26464844 160.94287109 C-101.6250706 146.13981799 -97.43270025 131.0366202 -94.34960938 116.66455078 C-91.50361218 103.37227202 -89.02308883 90.02559956 -86.61376953 76.64794922 C-86.10351938 73.82092603 -85.58685277 70.99513418 -85.06933594 68.16943359 C-84.91721649 67.31427155 -84.76509705 66.4591095 -84.60836792 65.57803345 C-82.73789524 55.4161179 -82.73789524 55.4161179 -79.26464844 51.94287109 C-76.32948551 51.41568619 -73.45267935 50.99886775 -70.49511719 50.65380859 C-69.62196365 50.54565826 -68.74881012 50.43750793 -67.84919739 50.32608032 C-65.99948434 50.09860846 -64.14925761 49.87528149 -62.29858398 49.65576172 C-59.47295002 49.32034038 -56.64904995 48.97261303 -53.82519531 48.62255859 C-52.02775789 48.4030816 -50.23023433 48.18430867 -48.43261719 47.96630859 C-47.16831123 47.81166641 -47.16831123 47.81166641 -45.87846375 47.65390015 C-41.98404473 47.19457096 -38.19475706 46.81241519 -34.26464844 46.94287109 C-34.31105469 46.16943359 -34.35746094 45.39599609 -34.40527344 44.59912109 C-34.44136719 43.55755859 -34.47746094 42.51599609 -34.51464844 41.44287109 C-34.56105469 40.42193359 -34.60746094 39.40099609 -34.65527344 38.34912109 C-33.79042471 30.80764018 -29.39023414 25.44416571 -24.17871094 20.22021484 C-23.59930756 19.62986954 -23.01990417 19.03952423 -22.42294312 18.43128967 C-21.20606998 17.19866814 -19.98395248 15.97120354 -18.75683594 14.7487793 C-16.8818418 12.87255935 -15.03819232 10.96878248 -13.19433594 9.06201172 C-12.00342012 7.86296307 -10.8107706 6.66563333 -9.61621094 5.47021484 C-9.06913483 4.89955795 -8.52205872 4.32890106 -7.95840454 3.74095154 C-5.2151221 1.06209947 -3.91223809 -0.06846124 0 0 Z " fill="#6266EB" transform="translate(621.2646484375,105.05712890625)"/>
<path d="M0 0 C0.68970383 0.59130707 1.37940765 1.18261414 2.0900116 1.7918396 C30.92332394 27.53571883 30.92332394 27.53571883 31.93945312 39.0300293 C31.58305091 44.96886625 30.14234901 50.48590967 28.24804688 56.10961914 C26.753443 60.81658341 26.20335128 65.57684344 25.57617188 70.4597168 C25.1600975 73.04720375 24.71204772 75.62758071 24.26367188 78.2097168 C6.2302539 82.08097084 -11.86108875 85.60996637 -29.98632812 89.0222168 C-31.04456787 89.22257538 -32.10280762 89.42293396 -33.19311523 89.62936401 C-36.25370471 90.20807156 -39.31516197 90.78193616 -42.37695312 91.35424805 C-43.28854187 91.52693207 -44.20013062 91.69961609 -45.13934326 91.87753296 C-50.66118888 92.90179898 -56.1474661 93.65260146 -61.73632812 94.2097168 C-55.99746376 87.36110223 -49.82562505 81.00834582 -43.54052734 74.66381836 C-42.2454555 73.35202956 -40.95579451 72.03487852 -39.67138672 70.71264648 C-37.80648234 68.7932958 -35.92594402 66.89063081 -34.04101562 64.9909668 C-33.46801727 64.39529907 -32.89501892 63.79963135 -32.30465698 63.18591309 C-30.66552734 61.55541992 -30.66552734 61.55541992 -27.73632812 59.2097168 C-25.70339966 59.55041504 -25.70339966 59.55041504 -23.73632812 60.2097168 C-19.19810159 60.59343676 -15.10930285 60.77681505 -10.86132812 59.0222168 C-6.83776613 55.5903551 -4.06380584 52.32880786 -3.49804688 46.94018555 C-3.32954462 41.16676634 -3.63001672 37.63189831 -7.73632812 33.2097168 C-11.66814085 30.02445079 -15.49604055 28.46792528 -20.68164062 28.76049805 C-25.87653406 29.89626372 -29.65020985 32.71630417 -32.73632812 36.9597168 C-34.23697711 41.836826 -34.46861713 46.68755657 -33.03665161 51.61955261 C-32.73632812 54.2097168 -32.73632812 54.2097168 -33.90011597 56.10176086 C-34.50332672 56.69466415 -35.10653748 57.28756744 -35.72802734 57.8984375 C-36.40558075 58.57876541 -37.08313416 59.25909332 -37.78121948 59.96003723 C-38.52695221 60.6779393 -39.27268494 61.39584137 -40.04101562 62.13549805 C-40.79472443 62.88308884 -41.54843323 63.63067963 -42.32498169 64.40092468 C-44.74008872 66.78903969 -47.17551141 69.15524777 -49.61132812 71.5222168 C-51.24675165 73.13612585 -52.88088357 74.75134486 -54.51367188 76.36791992 C-57.49692701 79.30896009 -60.48153989 82.24841567 -63.48583984 85.16796875 C-64.09064178 85.75689407 -64.69544373 86.3458194 -65.318573 86.95259094 C-66.73632812 88.2097168 -66.73632812 88.2097168 -67.73632812 88.2097168 C-67.14257355 80.72135059 -65.94583823 73.44921732 -64.48632812 66.0847168 C-64.1547168 64.38508789 -64.1547168 64.38508789 -63.81640625 62.65112305 C-62.1547869 54.1876908 -60.40428945 45.74392779 -58.62329102 37.30493164 C-56.17203785 25.63700534 -53.9534324 13.92401177 -51.73632812 2.2097168 C-50.70894531 2.08854492 -49.6815625 1.96737305 -48.62304688 1.8425293 C-39.39725559 0.74394669 -39.39725559 0.74394669 -30.23632812 -0.7902832 C-25.62775284 -1.66577243 -21.01023785 -2.35933096 -16.36132812 -2.9777832 C-15.68263672 -3.07381836 -15.00394531 -3.16985352 -14.3046875 -3.26879883 C-8.52384023 -4.00934431 -4.50082413 -3.86811693 0 0 Z " fill="#050147" transform="translate(597.736328125,162.790283203125)"/>
<path d="M0 0 C6.28513004 5.18760582 12.00311158 10.87427266 17.74609375 16.6484375 C18.76720048 17.67141306 19.788531 18.69416528 20.81007385 19.71670532 C23.47711353 22.38753361 26.14113436 25.06135282 28.80450439 27.73583984 C31.5312385 30.47286736 34.26086305 33.20700901 36.99023438 35.94140625 C42.32963089 41.29147548 47.66583652 46.64471273 53 52 C48.34042652 57.51006667 43.47582857 62.70724362 38.375 67.8125 C37.62476563 68.57498047 36.87453125 69.33746094 36.1015625 70.12304688 C35.37453125 70.85201172 34.6475 71.58097656 33.8984375 72.33203125 C33.24536621 72.98921143 32.59229492 73.6463916 31.91943359 74.32348633 C28.95548027 76.91232727 26.62558035 77.89172648 22.75 78.5625 C18.79769053 77.96965358 18.09799957 77.54280676 15.29077148 74.98168945 C14.59096161 74.34445953 13.89115173 73.70722961 13.1701355 73.0506897 C9.58866225 69.66634328 6.07699662 66.21957538 2.59765625 62.73046875 C1.83448593 61.96825516 1.07131561 61.20604156 0.28501892 60.42073059 C-1.31194789 58.82443932 -2.90767253 57.22690447 -4.50219727 55.62817383 C-6.95149736 53.17347177 -9.40614904 50.72421104 -11.86132812 48.27539062 C-13.4169878 46.71907093 -14.97233766 45.16244148 -16.52734375 43.60546875 C-17.2626683 42.87216843 -17.99799286 42.1388681 -18.75559998 41.38334656 C-19.43042923 40.70536514 -20.10525848 40.02738373 -20.80053711 39.32885742 C-21.3959581 38.73264084 -21.99137909 38.13642426 -22.60484314 37.5221405 C-25.19207536 34.69942496 -25.52579916 31.98898132 -25.46508789 28.19091797 C-24.89112987 25.48713882 -23.92542747 24.34516084 -22.05859375 22.3203125 C-21.42356934 21.6288916 -20.78854492 20.9374707 -20.13427734 20.22509766 C-16.33157265 16.26057574 -12.46728331 12.36387905 -8.5625 8.5 C-7.73556641 7.67757812 -6.90863281 6.85515625 -6.05664062 6.0078125 C-4.04005041 4.00287887 -2.02114764 2.00033747 0 0 Z " fill="#040046" transform="translate(620,115)"/>
<path d="M0 0 C2.97 0 5.94 0 9 0 C13.66531232 8.98740003 18.00264066 18.06918589 22 27.375 C22.39759521 28.29627686 22.79519043 29.21755371 23.20483398 30.16674805 C23.57036377 31.02695557 23.93589355 31.88716309 24.3125 32.7734375 C24.63863281 33.54091309 24.96476562 34.30838867 25.30078125 35.09912109 C26 37 26 37 26 39 C26.66 39 27.32 39 28 39 C28.53753906 37.2365625 28.53753906 37.2365625 29.0859375 35.4375 C31.19840758 29.1025721 33.97286747 23.06085683 36.72558594 16.98583984 C37.63472673 14.97852409 38.53656701 12.96804239 39.4375 10.95703125 C43.85416596 1.14583404 43.85416596 1.14583404 45 0 C47.97 0 50.94 0 54 0 C54 18.15 54 36.3 54 55 C51.69 55 49.38 55 47 55 C46.67 41.47 46.34 27.94 46 14 C40.72 25.55 35.44 37.1 30 49 C28.02 49 26.04 49 24 49 C18.33254071 37.13660451 13.14106918 25.10128592 8 13 C7.67 26.86 7.34 40.72 7 55 C4.69 55 2.38 55 0 55 C0 36.85 0 18.7 0 0 Z " fill="#649FE9" transform="translate(308,112)"/>
<path d="M0 0 C2.97 0 5.94 0 9 0 C14.61 12.54 20.22 25.08 26 38 C28.3216484 34.5175274 29.97485158 30.85023659 31.6953125 27.05078125 C32.04761932 26.27816452 32.39992615 25.50554779 32.76290894 24.70951843 C33.88605356 22.24495157 35.0055684 19.77875524 36.125 17.3125 C36.88648003 15.63986526 37.64819598 13.9673379 38.41015625 12.29492188 C40.27617588 8.19785494 42.13894213 4.09932301 44 0 C46.97 0 49.94 0 53 0 C54.09843601 18.33995833 54.10873144 36.6360966 54 55 C51.69 55 49.38 55 47 55 C46.67 40.81 46.34 26.62 46 12 C40.77688983 23.80149412 40.77688983 23.80149412 35.55883789 35.60522461 C34.90529473 37.07934593 34.25157944 38.55339097 33.59765625 40.02734375 C33.25730347 40.79953247 32.91695068 41.57172119 32.56628418 42.36730957 C30.1140718 47.8859282 30.1140718 47.8859282 29 49 C27.00041636 49.04080783 24.99954746 49.04254356 23 49 C20.88034618 44.21357454 18.76247024 39.42636796 16.64624023 34.63842773 C15.92602607 33.00963071 15.20532598 31.38104846 14.48413086 29.75268555 C13.44777745 27.41250968 12.4131722 25.0715678 11.37890625 22.73046875 C11.05596085 22.00224411 10.73301544 21.27401947 10.40028381 20.52372742 C9.15632345 17.70431343 7.97515295 14.92545886 7 12 C6.67 26.19 6.34 40.38 6 55 C3.69 55 1.38 55 -1 55 C-1.02510127 49.73877289 -1.04304552 44.47758219 -1.05493164 39.21630859 C-1.05989742 37.43407584 -1.06667228 35.65184701 -1.07543945 33.86962891 C-1.1297334 22.53177559 -0.88101234 11.3071528 0 0 Z " fill="#69D3EE" transform="translate(91,112)"/>
<path d="M0 0 C4.4452839 3.38688297 7.85158692 7.67976076 9.625 13 C10.47281236 21.63557442 10.00976469 28.93413804 4.625 36 C0.68590194 39.93909806 -3.29612468 41.32488512 -8.8125 41.6875 C-14.89736416 41.37480559 -19.01825862 39.1940415 -23.375 35 C-28.01751227 29.57955324 -27.97847808 23.22506692 -27.7578125 16.34765625 C-27.04977769 10.15596406 -24.93609919 6.12838018 -20.25 2.0625 C-14.20644672 -2.27309257 -7.05485056 -2.09032609 0 0 Z " fill="#67C4EC" transform="translate(183.375,127)"/>
<path d="M0 0 C4.14534377 2.34728456 6.92490094 5.34255562 9.5 9.3125 C10.27414851 13.47354825 10 17.76755054 10 22 C1.09 22 -7.82 22 -17 22 C-15.95870624 30.48869001 -15.95870624 30.48869001 -12.5 33.5 C-7.71544795 36.37073123 -3.36068459 36.7251008 2.08203125 35.55078125 C3.73415169 35.0763434 5.3693149 34.5435617 7 34 C7.495 35.98 7.495 35.98 8 38 C4.6334464 40.21230665 2.0098641 41.54433363 -2 42 C-2.66 42.08765625 -3.32 42.1753125 -4 42.265625 C-9.74663589 42.70460413 -13.38564047 41.3388752 -17.98046875 37.88671875 C-23.14430759 33.06247472 -25.27240739 28.10531139 -25.625 21.0625 C-25.28597454 14.06786936 -23.25162882 8.32672418 -18.30859375 3.26953125 C-12.85790271 -0.79288358 -6.55155529 -1.39637707 0 0 Z " fill="#6384E9" transform="translate(464,126)"/>
<path d="M0 0 C4.15182617 2.32684763 6.92836242 5.34789206 9.5 9.3125 C10.27414851 13.47354825 10 17.76755054 10 22 C0.76 22 -8.48 22 -18 22 C-15.00668265 31.38723665 -15.00668265 31.38723665 -11 35 C-4.701318 37.09956067 0.88795094 36.03734969 7 34 C7.495 35.98 7.495 35.98 8 38 C4.6334464 40.21230665 2.0098641 41.54433363 -2 42 C-2.66 42.08765625 -3.32 42.1753125 -4 42.265625 C-9.82603991 42.71066972 -13.37715362 41.23532115 -18.05078125 37.78515625 C-22.60190922 33.61708915 -24.72385124 28.51558618 -25.203125 22.4140625 C-25.32507697 15.15792015 -24.55584369 10.89213892 -19.625 5.3125 C-13.46240804 -0.11645006 -8.12089367 -1.48130143 0 0 Z " fill="#64AAE8" transform="translate(287,126)"/>
<path d="M0 0 C1.98 0 3.96 0 6 0 C6.33 2.31 6.66 4.62 7 7 C7.763125 6.030625 8.52625 5.06125 9.3125 4.0625 C11.26748815 1.57913668 11.85650159 1.0478328 15 0 C20.01817211 -0.47385217 24.46515741 -0.79939718 29 1.5625 C33.29158896 6.79287405 34.37872255 11.58588219 34.29296875 18.24609375 C34.28872391 18.90207047 34.28447906 19.55804718 34.28010559 20.23390198 C34.26348779 22.30220911 34.22587238 24.36949401 34.1875 26.4375 C34.17243111 27.85089725 34.15874659 29.26430998 34.14648438 30.67773438 C34.11364104 34.11881435 34.06198015 37.55930719 34 41 C31.69 41 29.38 41 27 41 C26.98541748 40.08186523 26.97083496 39.16373047 26.95581055 38.21777344 C26.89466485 34.80312091 26.82049783 31.38926328 26.73754883 27.97509766 C26.70434645 26.49896862 26.67629983 25.02271406 26.65356445 23.54638672 C26.61993049 21.42100668 26.56761481 19.29677196 26.51171875 17.171875 C26.48553467 15.8940918 26.45935059 14.61630859 26.43237305 13.29980469 C25.98148141 9.85866893 25.43641418 8.41929565 23 6 C19.93663082 5.16818627 17.09664842 5.36437217 14 6 C10.42606028 8.68045479 8.77530363 10.66366973 8 15 C7.85374965 17.02350669 7.75316797 19.05053334 7.68359375 21.078125 C7.64169922 22.23828125 7.59980469 23.3984375 7.55664062 24.59375 C7.49766602 26.40359375 7.49766602 26.40359375 7.4375 28.25 C7.37272461 30.08304688 7.37272461 30.08304688 7.30664062 31.953125 C7.20062645 34.9686392 7.09856064 37.98423448 7 41 C4.69 41 2.38 41 0 41 C0 27.47 0 13.94 0 0 Z " fill="#648FEB" transform="translate(395,126)"/>
<path d="M0 0 C3.75378592 3.32478182 4.91752449 6.7283102 5.5078125 11.55859375 C5.81586676 18.96216442 4.38685739 24.40717461 -0.625 29.9375 C-3.94365211 31.45459811 -6.20433344 31.43517815 -9.8125 30.9375 C-13.28833508 28.70771901 -15.30306433 26.93321517 -17.1875 23.25 C-18.64777592 15.51053764 -18.30409458 9.04538896 -14.8125 1.9375 C-10.98188145 -2.60249236 -5.10547626 -1.92873547 0 0 Z " fill="#060449" transform="translate(180.8125,132.0625)"/>
<path d="M0 0 C1.4540625 0.0309375 1.4540625 0.0309375 2.9375 0.0625 C1.46436999 7.96623944 -1.14274682 15.38883934 -3.8581543 22.93115234 C-4.63251608 25.08338997 -5.39787691 27.23867853 -6.16210938 29.39453125 C-9.91711045 39.91711045 -9.91711045 39.91711045 -11.0625 41.0625 C-13.39547433 41.10342937 -15.72955225 41.10491723 -18.0625 41.0625 C-21.77808034 31.60979257 -25.44811726 22.14058319 -29 12.625 C-29.30623291 11.81506592 -29.61246582 11.00513184 -29.92797852 10.1706543 C-30.20826904 9.41437744 -30.48855957 8.65810059 -30.77734375 7.87890625 C-31.02605225 7.21318604 -31.27476074 6.54746582 -31.53100586 5.86157227 C-32.0625 4.0625 -32.0625 4.0625 -32.0625 1.0625 C-29.7525 1.0625 -27.4425 1.0625 -25.0625 1.0625 C-21.7625 10.6325 -18.4625 20.2025 -15.0625 30.0625 C-13.05783909 27.05550864 -12.08472094 24.52757238 -10.93359375 21.1171875 C-10.53849609 19.95832031 -10.14339844 18.79945313 -9.73632812 17.60546875 C-9.32833984 16.39503906 -8.92035156 15.18460938 -8.5 13.9375 C-7.68880155 11.53818065 -6.87513569 9.13969361 -6.05859375 6.7421875 C-5.69950928 5.67726074 -5.3404248 4.61233398 -4.97045898 3.51513672 C-3.69709732 0.07545097 -3.69709732 0.07545097 0 0 Z " fill="#66BAEB" transform="translate(232.0625,125.9375)"/>
<path d="M0 0 C2.31 0 4.62 0 7 0 C7.66 4.95 8.32 9.9 9 15 C9.66 15 10.32 15 11 15 C11.06058594 14.16855469 11.12117187 13.33710938 11.18359375 12.48046875 C11.26738281 11.39378906 11.35117188 10.30710938 11.4375 9.1875 C11.51871094 8.10855469 11.59992188 7.02960938 11.68359375 5.91796875 C12 3 12 3 13 0 C15.31 0 17.62 0 20 0 C20.69037426 9.02417777 21.15178302 17.94361322 21 27 C19.68 27 18.36 27 17 27 C16.93941406 26.09636719 16.87882812 25.19273437 16.81640625 24.26171875 C16.73261719 23.08222656 16.64882812 21.90273437 16.5625 20.6875 C16.48128906 19.51574219 16.40007812 18.34398437 16.31640625 17.13671875 C16.1132629 13.97409042 16.1132629 13.97409042 15 11 C14.86722656 11.85464844 14.73445312 12.70929688 14.59765625 13.58984375 C14.33275391 15.24693359 14.33275391 15.24693359 14.0625 16.9375 C13.88847656 18.03964844 13.71445313 19.14179688 13.53515625 20.27734375 C13 23 13 23 12 24 C10.35 24 8.7 24 7 24 C6.34 20.7 5.68 17.4 5 14 C4.34 18.29 3.68 22.58 3 27 C1.68 27 0.36 27 -1 27 C-1.02932572 23.81251971 -1.04690739 20.62507472 -1.0625 17.4375 C-1.07087891 16.54224609 -1.07925781 15.64699219 -1.08789062 14.72460938 C-1.10629571 9.70002057 -0.86266398 4.95182709 0 0 Z " fill="#060A0D" transform="translate(171,215)"/>
<path d="M0 0 C1.98 0 3.96 0 6 0 C6.33 2.31 6.66 4.62 7 7 C7.598125 6.21625 8.19625 5.4325 8.8125 4.625 C11 2 11 2 14 0 C16.33199388 -0.07905064 18.66832622 -0.08798769 21 0 C21 1.65 21 3.3 21 5 C20.39671875 5.14695313 19.7934375 5.29390625 19.171875 5.4453125 C18.37265625 5.66960937 17.5734375 5.89390625 16.75 6.125 C15.96109375 6.33382812 15.1721875 6.54265625 14.359375 6.7578125 C10.9722943 8.54107684 9.27948623 10.4551276 8 14 C7.37953334 18.62210281 7.30338466 23.21597523 7.25 27.875 C7.22035156 29.13570312 7.19070313 30.39640625 7.16015625 31.6953125 C7.08966475 34.79693866 7.03686259 37.89782197 7 41 C4.69 41 2.38 41 0 41 C0 27.47 0 13.94 0 0 Z " fill="#627CE8" transform="translate(484,126)"/>
<path d="M0 0 C2.33333333 0 4.66666667 0 7 0 C7.969375 -0.0825 8.93875 -0.165 9.9375 -0.25 C13 0 13 0 14.66796875 1.64453125 C16.3322072 4.58745144 16.40047666 6.57033482 16.375 9.9375 C16.38273437 10.95714844 16.39046875 11.97679687 16.3984375 13.02734375 C15.94556541 16.4061247 15.08684673 18.31691135 13 21 C9.84010585 21.38692581 7.86120256 21.43060128 5 20 C5 22.97 5 25.94 5 29 C3.35 29 1.7 29 0 29 C0 19.43 0 9.86 0 0 Z " fill="#070A12" transform="translate(327,221)"/>
<path d="M0 0 C2.9375 1.875 2.9375 1.875 5 5 C5.95093792 10.01327798 5.44450915 13.92576957 3.5 18.625 C0.88868466 21.10574957 0.39073787 21.42256789 -3 21.625 C-6.05865206 21.39716744 -6.91449732 21.06577129 -9.4375 19.125 C-12.55601403 14.88382092 -12.51509745 11.14209354 -12 6 C-9.24468438 -0.01159771 -6.49034875 -0.66003547 0 0 Z " fill="#05070D" transform="translate(358,221)"/>
<path d="M0 0 C2.9375 1.875 2.9375 1.875 5 5 C5.95093792 10.01327798 5.44450915 13.92576957 3.5 18.625 C0.83812528 21.15378099 0.39102474 21.38551852 -3.0625 21.5 C-7 21 -7 21 -10 19 C-12.62136911 14.85315188 -12.5688037 10.76266981 -12 6 C-9.24468438 -0.01159771 -6.49034875 -0.66003547 0 0 Z " fill="#05090D" transform="translate(279,221)"/>
<path d="M0 0 C2.94624421 0.83438557 4.15783078 2.14526956 6 4.56640625 C6.49609375 7.40625 6.49609375 7.40625 6.4375 10.50390625 C6.43621094 11.52355469 6.43492187 12.54320312 6.43359375 13.59375 C5.94381582 16.95159686 5.04002795 18.87048279 3 21.56640625 C-0.60619821 22.82073606 -2.25963619 22.90293525 -5.75 21.31640625 C-8.51249893 19.16779597 -9.86790466 17.55865731 -10.3359375 14.04296875 C-10.39624534 9.64049655 -10.39571235 6.407295 -8.5 2.37890625 C-5.47884678 0.18857017 -3.64716647 0.00712337 0 0 Z " fill="#06070F" transform="translate(401,220.43359375)"/>
<path d="M0 0 C2.31 0 4.62 0 7 0 C7 13.53 7 27.06 7 41 C4.69 41 2.38 41 0 41 C0 27.47 0 13.94 0 0 Z " fill="#6698ED" transform="translate(376,126)"/>
<path d="M0 0 C1.98 0 3.96 0 6 0 C6 13.2 6 26.4 6 40 C4.02 40 2.04 40 0 40 C0 26.8 0 13.6 0 0 Z " fill="#6BBCF3" transform="translate(245,127)"/>
<path d="M0 0 C2.27734375 0.5703125 2.27734375 0.5703125 4.83984375 2.9453125 C7.31877051 7.47204831 7.27734375 7.63767645 7.27734375 13.5703125 C0.01734375 13.5703125 -7.24265625 13.5703125 -14.72265625 13.5703125 C-13.77245696 7.86911674 -13.33347556 5.92713741 -9.671875 1.9375 C-6.53466005 -0.26295137 -3.74192852 -0.25884017 0 0 Z " fill="#0A0951" transform="translate(460.72265625,130.4296875)"/>
<path d="M0 0 C3.9375 0.625 3.9375 0.625 5.875 2.125 C7.36521509 5.63138846 7.62113662 8.82863944 7.9375 12.625 C4.3075 12.625 0.6775 12.625 -3.0625 12.625 C-2.4025 14.275 -1.7425 15.925 -1.0625 17.625 C1.2475 17.625 3.5575 17.625 5.9375 17.625 C5.9375 18.615 5.9375 19.605 5.9375 20.625 C4.36840241 22.19409759 2.79703743 21.94518865 0.625 22.0625 C-3.14888011 22.00240637 -3.75688735 21.91570471 -6.625 19.1875 C-8.99303678 13.31888711 -9.02137301 8.90232339 -6.5625 3.0625 C-3.93425095 0.49995718 -3.45435529 0.19720997 0 0 Z " fill="#040609" transform="translate(232.0625,220.375)"/>
<path d="M0 0 C2.33333333 0 4.66666667 0 7 0 C7.99 -0.04125 8.98 -0.0825 10 -0.125 C13 0 13 0 15 2 C15.22705078 3.97119141 15.22705078 3.97119141 15.1953125 6.3515625 C15.18564453 7.62773437 15.18564453 7.62773437 15.17578125 8.9296875 C15.15902344 9.81914062 15.14226562 10.70859375 15.125 11.625 C15.11597656 12.5221875 15.10695313 13.419375 15.09765625 14.34375 C15.0740497 16.56276586 15.0411231 18.78125077 15 21 C13.35 21 11.7 21 10 21 C10 15.39 10 9.78 10 4 C8.68 4 7.36 4 6 4 C5.67 9.61 5.34 15.22 5 21 C3.35 21 1.7 21 0 21 C0 14.07 0 7.14 0 0 Z " fill="#05060C" transform="translate(411,221)"/>
<path d="M0 0 C2.5 2.125 2.5 2.125 4 5 C3.93768424 8.61431429 3.78958699 10.97010393 1.5625 13.875 C-1.68436485 16.21274269 -4.02224969 16.39777503 -8 16 C-11.21983624 13.82443497 -11.91057891 12.30738498 -13 8.5625 C-13 5 -13 5 -11.1875 2.125 C-7.36269331 -1.5905265 -5.1353294 -1.23956227 0 0 Z " fill="#08044D" transform="translate(584,200)"/>
<path d="M0 0 C1.65 0 3.3 0 5 0 C5.33 5.61 5.66 11.22 6 17 C6.99 16.67 7.98 16.34 9 16 C9.33 10.72 9.66 5.44 10 0 C11.65 0 13.3 0 15 0 C15 6.93 15 13.86 15 21 C13.68 21 12.36 21 11 21 C11 20.34 11 19.68 11 19 C10.34 19 9.68 19 9 19 C9 19.66 9 20.32 9 21 C6.69 21 4.38 21 2 21 C-0.71486934 17.02389214 -0.22440753 12.86098023 -0.125 8.25 C-0.11597656 7.45722656 -0.10695313 6.66445312 -0.09765625 5.84765625 C-0.07417012 3.89830719 -0.03830137 1.94911425 0 0 Z " fill="#05080D" transform="translate(287,221)"/>
<path d="M0 0 C1.65 0 3.3 0 5 0 C5.99 4.62 6.98 9.24 8 14 C9.17217819 10.48346543 10.26448346 7.1899971 11.125 3.625 C11.41375 2.42875 11.7025 1.2325 12 0 C13.65 0 15.3 0 17 0 C10.7701799 25.77311359 10.7701799 25.77311359 6 29 C3.25 29.25 3.25 29.25 1 29 C1 28.01 1 27.02 1 26 C2.32 25.34 3.64 24.68 5 24 C5 20.35100489 4.04020127 17.16865781 3.0625 13.6875 C1.79281229 9.15161918 0.68737797 4.66693465 0 0 Z " fill="#05090C" transform="translate(249,221)"/>
<path d="M0 0 C2.3125 0.48046875 2.3125 0.48046875 4.875 2.54296875 C6.3125 5.48046875 6.3125 5.48046875 7.3125 12.48046875 C0.3825 12.48046875 -6.5475 12.48046875 -13.6875 12.48046875 C-12.6875 5.48046875 -12.6875 5.48046875 -10.75 2.54296875 C-6.96846564 -0.00377888 -4.48636538 -0.24701714 0 0 Z " fill="#050248" transform="translate(283.6875,130.51953125)"/>
<path d="M0 0 C2.475 0.495 2.475 0.495 5 1 C5.33 0.67 5.66 0.34 6 0 C8.9375 -0.1875 8.9375 -0.1875 12 0 C14 2 14 2 14.22705078 3.97119141 C14.21134033 5.1494751 14.21134033 5.1494751 14.1953125 6.3515625 C14.18564453 7.62773437 14.18564453 7.62773437 14.17578125 8.9296875 C14.15902344 9.81914062 14.14226562 10.70859375 14.125 11.625 C14.11597656 12.5221875 14.10695312 13.419375 14.09765625 14.34375 C14.0740497 16.56276586 14.0411231 18.78125077 14 21 C12.68 21 11.36 21 10 21 C9.67 15.39 9.34 9.78 9 4 C8.01 4.33 7.02 4.66 6 5 C5.67 10.28 5.34 15.56 5 21 C3.35 21 1.7 21 0 21 C0 14.07 0 7.14 0 0 Z " fill="#060A0E" transform="translate(206,221)"/>
<path d="M0 0 C0.66 0.33 1.32 0.66 2 1 C1.67 1.99 1.34 2.98 1 4 C-1.31 3.67 -3.62 3.34 -6 3 C-6.03525132 4.88658874 -6.03525132 4.88658874 -5 7 C-2.75835678 8.59501537 -0.46433357 9.74543018 2 11 C2.29296875 17.0546875 2.29296875 17.0546875 2 19 C-1.11037628 21.07358419 -1.99561252 21.29487123 -5.5625 21.3125 C-6.34753906 21.32925781 -7.13257813 21.34601563 -7.94140625 21.36328125 C-8.62074219 21.24339844 -9.30007813 21.12351563 -10 21 C-10.66 20.01 -11.32 19.02 -12 18 C-11.01 17.34 -10.02 16.68 -9 16 C-8.67 16.33 -8.34 16.66 -8 17 C-6.33382885 17.04063832 -4.66611905 17.042721 -3 17 C-3.03955898 15.07690578 -3.03955898 15.07690578 -4 13 C-4.99 12.566875 -5.98 12.13375 -7 11.6875 C-10 10 -10 10 -11.0625 6.5 C-11 3 -11 3 -10.0625 1.0625 C-6.69588022 -0.67181928 -3.75827927 -0.23862091 0 0 Z " fill="#04050A" transform="translate(386,221)"/>
<path d="M0 0 C2.475 0.495 2.475 0.495 5 1 C7.72502965 0.62277985 7.72502965 0.62277985 10 0 C10 1.32 10 2.64 10 4 C9.360625 4.28875 8.72125 4.5775 8.0625 4.875 C5.84793921 5.82823451 5.84793921 5.82823451 5 8 C4.77049681 10.204364 4.58924067 12.41392173 4.4375 14.625 C4.35371094 15.81351563 4.26992188 17.00203125 4.18359375 18.2265625 C4.12300781 19.14179688 4.06242187 20.05703125 4 21 C2.68 21 1.36 21 0 21 C0 14.07 0 7.14 0 0 Z " fill="#010203" transform="translate(307,221)"/>
<path d="M0 0 C1.65 0 3.3 0 5 0 C5 6.93 5 13.86 5 21 C3.35 21 1.7 21 0 21 C0 14.07 0 7.14 0 0 Z " fill="#070D10" transform="translate(196,221)"/>
<path d="M0 0 C4.55555556 0.55555556 4.55555556 0.55555556 6 2 C6.08651611 3.41570123 6.10704904 4.835595 6.09765625 6.25390625 C6.09443359 7.10791016 6.09121094 7.96191406 6.08789062 8.84179688 C6.07951172 9.73962891 6.07113281 10.63746094 6.0625 11.5625 C6.05798828 12.46419922 6.05347656 13.36589844 6.04882812 14.29492188 C6.03700225 16.53001314 6.0205222 18.76497437 6 21 C4.68 21 3.36 21 2 21 C1.96261719 19.79601562 1.92523438 18.59203125 1.88671875 17.3515625 C1.82107072 15.77600989 1.75462299 14.20049046 1.6875 12.625 C1.65366211 11.43390625 1.65366211 11.43390625 1.61914062 10.21875 C1.52214925 8.13784419 1.27005175 6.06558668 1 4 C0.01 3.34 -0.98 2.68 -2 2 C-1.34 1.34 -0.68 0.68 0 0 Z " fill="#000000" transform="translate(214,221)"/>
<path d="M0 0 C3.875 0.875 3.875 0.875 5 2 C5.12494616 3.62139437 5.17571624 5.24884122 5.1875 6.875 C5.20167969 7.75929687 5.21585937 8.64359375 5.23046875 9.5546875 C5 12 5 12 3 15 C1.0625 14.625 1.0625 14.625 -1 14 C-2.16983345 11.6603331 -2.1661241 10.16608473 -2.1875 7.5625 C-2.20167969 6.78003906 -2.21585937 5.99757812 -2.23046875 5.19140625 C-2 3 -2 3 0 0 Z " fill="#5C78D7" transform="translate(353,224)"/>
<path d="M0 0 C3.875 0.875 3.875 0.875 5 2 C5.12494616 3.62139437 5.17571624 5.24884122 5.1875 6.875 C5.20167969 7.75929687 5.21585937 8.64359375 5.23046875 9.5546875 C5 12 5 12 3 15 C1.0625 14.625 1.0625 14.625 -1 14 C-2.16983345 11.6603331 -2.1661241 10.16608473 -2.1875 7.5625 C-2.20167969 6.78003906 -2.21585937 5.99757812 -2.23046875 5.19140625 C-2 3 -2 3 0 0 Z " fill="#5D90D8" transform="translate(274,224)"/>
<path d="M0 0 C1.32 0 2.64 0 4 0 C4 6.93 4 13.86 4 21 C2.68 21 1.36 21 0 21 C0 14.07 0 7.14 0 0 Z " fill="#000000" transform="translate(367,221)"/>
<path d="M0 0 C1.32 0.33 2.64 0.66 4 1 C4 5.29 4 9.58 4 14 C2.68 14.33 1.36 14.66 0 15 C-2.16721782 11.74917327 -2.27221018 10.70767847 -2.25 6.9375 C-2.25515625 6.05964844 -2.2603125 5.18179688 -2.265625 4.27734375 C-2 2 -2 2 0 0 Z " fill="#6071E3" transform="translate(398,224)"/>
<path d="M0 0 C1.32 0.33 2.64 0.66 4 1 C4 4.96 4 8.92 4 13 C2.02 13.99 2.02 13.99 0 15 C-2 13 -2 13 -2.265625 10.46875 C-2.26046875 9.4890625 -2.2553125 8.509375 -2.25 7.5 C-2.25515625 6.5203125 -2.2603125 5.540625 -2.265625 4.53125 C-2 2 -2 2 0 0 Z " fill="#5E80DA" transform="translate(334,224)"/>
<path d="M0 0 C3 -0.3125 3 -0.3125 6 0 C8 2 8 2 8.3125 4.5 C8.1578125 5.7375 8.1578125 5.7375 8 7 C5 9 5 9 1.8125 8.625 C0.4203125 8.315625 0.4203125 8.315625 -1 8 C-1.625 5.6875 -1.625 5.6875 -2 3 C-1.34 2.01 -0.68 1.02 0 0 Z " fill="#61ABE3" transform="translate(245,108)"/>
<path d="M0 0 C2.5 0.25 2.5 0.25 4.5 2.25 C4.75 4.75 4.75 4.75 4.5 7.25 C2.5 9.25 2.5 9.25 0 9.5 C-2.5 9.25 -2.5 9.25 -4.5 7.25 C-4.75 4.75 -4.75 4.75 -4.5 2.25 C-2.5 0.25 -2.5 0.25 0 0 Z " fill="#6598EC" transform="translate(379.5,107.75)"/>
<path d="M0 0 C1.65 0.33 3.3 0.66 5 1 C5 2.65 5 4.3 5 6 C3.02 6 1.04 6 -1 6 C-0.67 4.02 -0.34 2.04 0 0 Z " fill="#5F9ED9" transform="translate(230,224)"/>
<path d="M0 0 C1.65 0.33 3.3 0.66 5 1 C4.67 2.32 4.34 3.64 4 5 C2.35 4.67 0.7 4.34 -1 4 C-0.67 2.68 -0.34 1.36 0 0 Z " fill="#06070E" transform="translate(367,211)"/>
<path d="M0 0 C1.65 0.33 3.3 0.66 5 1 C4.67 2.32 4.34 3.64 4 5 C2.35 4.67 0.7 4.34 -1 4 C-0.67 2.68 -0.34 1.36 0 0 Z " fill="#070D11" transform="translate(197,211)"/>
</svg>
