<?xml version="1.0" encoding="UTF-8"?>
<svg version="1.1" xmlns="http://www.w3.org/2000/svg" width="1352" height="1352">
<path d="M0 0 C446.16 0 892.32 0 1352 0 C1352 446.16 1352 892.32 1352 1352 C905.84 1352 459.68 1352 0 1352 C0 905.84 0 459.68 0 0 Z " fill="#000000" transform="translate(0,0)"/>
<path d="M0 0 C1.00661682 -0.00067474 2.01323364 -0.00134949 3.050354 -0.00204468 C21.22435296 0.01715612 39.03428781 0.94526347 57.0625 3.25 C58.98763428 3.49145752 58.98763428 3.49145752 60.95166016 3.73779297 C104.21068507 9.35914423 150.04014477 19.86899613 188.89257812 40.17822266 C191.07778523 41.25754975 193.26925051 42.11641125 195.5625 42.9375 C201.57831152 45.24611557 207.07642079 48.50503176 212.64257812 51.72143555 C216.70774511 54.04760462 220.52252651 55.96319223 225.0625 57.25 C225.0625 57.91 225.0625 58.57 225.0625 59.25 C225.75085938 59.5078125 226.43921875 59.765625 227.1484375 60.03125 C260.27557404 73.88603096 290.84462851 100.32619227 317.0625 124.25 C317.949375 125.0440625 318.83625 125.838125 319.75 126.65625 C325.95619254 132.255315 331.95384968 138.03753103 337.875 143.9375 C338.58019775 144.63810547 339.28539551 145.33871094 340.01196289 146.06054688 C344.5658932 150.62790427 348.86578662 155.35414818 353.0625 160.25 C354.04758135 161.37942612 355.03323244 162.50835565 356.01953125 163.63671875 C362.66392387 171.29512887 369.01400717 179.11126775 375.0625 187.25 C375.54799316 187.89888184 376.03348633 188.54776367 376.53369141 189.21630859 C429.14077814 259.77384245 459.66271737 342.87555651 468.0625 430.25 C468.2171875 431.84013916 468.2171875 431.84013916 468.375 433.46240234 C469.34804184 444.99468571 469.30615105 456.55925558 469.3125 468.125 C469.31351212 469.78739212 469.31351212 469.78739212 469.31454468 471.48336792 C469.29676608 489.93738546 468.49516588 507.94448591 466.0625 526.25 C465.88890603 527.60039053 465.71557244 528.95081456 465.54248047 530.30126953 C459.44951627 577.21912795 446.61520069 623.55853811 426.0625 666.25 C425.53027832 667.36213867 424.99805664 668.47427734 424.44970703 669.62011719 C412.56447435 694.36873232 399.05580777 717.89630954 383.0625 740.25 C382.48612793 741.05695312 381.90975586 741.86390625 381.31591797 742.6953125 C374.39287703 752.34183201 367.26591636 761.71300086 359.44970703 770.65234375 C357.94938797 772.38027193 356.47132764 774.12561578 354.99609375 775.875 C350.18086903 781.57310365 345.3620375 787.14666776 339.98242188 792.32714844 C338.15788132 794.15447314 336.4885699 796.04203245 334.8203125 798.01171875 C331.19947425 802.179162 327.30723362 805.94946293 323.25 809.6875 C322.54568848 810.34073242 321.84137695 810.99396484 321.11572266 811.66699219 C319.72312287 812.95635357 318.32866091 814.24370731 316.93212891 815.52880859 C315.3803522 816.95738339 313.8357257 818.39372047 312.29296875 819.83203125 C306.08817176 825.54291405 299.50740964 830.70641726 292.84179688 835.86035156 C291.15492204 837.17781747 289.48859036 838.51666213 287.828125 839.8671875 C267.16937043 856.59005012 244.34480267 870.51348508 221.0625 883.25 C220.40056641 883.61254883 219.73863281 883.97509766 219.05664062 884.34863281 C205.923304 891.5151717 205.923304 891.5151717 199.1875 894.265625 C196.81778802 895.32242975 196.81778802 895.32242975 193.7421875 897.19140625 C190.33649379 899.15984301 186.8902114 900.58848151 183.1875 901.9375 C182.51315918 902.18387207 181.83881836 902.43024414 181.14404297 902.68408203 C179.62698618 903.23699031 178.10885567 903.78695859 176.58984375 904.33447266 C173.84655303 905.32822654 171.11084281 906.34139884 168.375 907.35546875 C153.42754045 912.86009365 138.35533744 917.79446616 123.0625 922.25 C122.21526367 922.49733887 121.36802734 922.74467773 120.49511719 922.99951172 C101.61147897 928.43195056 82.26655159 931.81194518 62.8125 934.4375 C61.66740967 934.59226807 60.52231934 934.74703613 59.3425293 934.90649414 C55.58621118 935.39067925 51.82678159 935.83340456 48.0625 936.25 C46.883461 936.38240585 46.883461 936.38240585 45.68060303 936.51748657 C30.66889108 938.16154757 15.78201387 938.61312574 0.6875 938.5625 C-0.44780151 938.56067719 -1.58310303 938.55885437 -2.75280762 938.55697632 C-21.32797777 938.50697652 -39.51803535 937.76362366 -57.9375 935.25 C-58.91314911 935.1191803 -58.91314911 935.1191803 -59.9085083 934.98571777 C-94.0431065 930.39568968 -127.1351486 922.5484707 -159.53515625 910.79296875 C-162.72652541 909.64232676 -165.93751093 908.64519669 -169.1953125 907.69921875 C-172.58740017 906.69942832 -175.64336748 905.59258162 -178.75 903.875 C-182.46960677 901.92249613 -186.17626922 900.37120787 -190.125 898.9375 C-195.92261197 896.77626004 -201.2537024 894.10284564 -206.64916992 891.10424805 C-210.02531549 889.23262368 -213.41149879 887.61385549 -216.97265625 886.13037109 C-221.26938259 884.20517289 -225.3721059 881.88382007 -229.5 879.625 C-230.47001953 879.09519531 -231.44003906 878.56539062 -232.43945312 878.01953125 C-240.17481109 873.75351988 -247.61297764 869.18609116 -254.9375 864.25 C-256.05125 863.54875 -257.165 862.8475 -258.3125 862.125 C-259.17875 861.50625 -260.045 860.8875 -260.9375 860.25 C-260.9375 859.59 -260.9375 858.93 -260.9375 858.25 C-261.7728125 858.0953125 -261.7728125 858.0953125 -262.625 857.9375 C-265.4144101 857.10821592 -267.5514064 855.90700944 -269.9375 854.25 C-269.9375 853.59 -269.9375 852.93 -269.9375 852.25 C-270.6078125 852.03214844 -271.278125 851.81429687 -271.96875 851.58984375 C-275.88024856 849.82452269 -279.03981205 847.41099621 -282.4375 844.8125 C-283.13875 844.28116455 -283.84 843.7498291 -284.5625 843.20239258 C-291.22152511 838.11387803 -297.61522877 832.74800841 -303.9375 827.25 C-304.65035156 826.63769531 -305.36320313 826.02539062 -306.09765625 825.39453125 C-308.06077337 823.69746286 -310.0016864 821.97814011 -311.9375 820.25 C-312.73414063 819.54617188 -313.53078125 818.84234375 -314.3515625 818.1171875 C-321.36572242 811.81432267 -328.07286258 805.2205417 -334.75 798.5625 C-335.64549561 797.67159668 -336.54099121 796.78069336 -337.46362305 795.86279297 C-342.49532215 790.81936496 -347.32770706 785.68104824 -351.9375 780.25 C-352.62646362 779.45154663 -352.62646362 779.45154663 -353.3293457 778.63696289 C-409.64918254 713.36215665 -448.99448004 633.47410746 -467.9375 507.25 C-468.03321289 506.32832031 -468.12892578 505.40664063 -468.22753906 504.45703125 C-474.57084525 435.43094671 -462.5240383 363.80971287 -437.625 299.4375 C-437.24306992 298.44956955 -437.24306992 298.44956955 -436.85342407 297.44168091 C-434.43236343 291.21233349 -431.97155469 285.08130633 -428.87451172 279.15649414 C-427.78657673 276.94292345 -426.89158762 274.68864324 -425.99609375 272.390625 C-411.06791598 234.33356898 -385.80020843 197.84974642 -358.9375 167.25 C-358.30457031 166.5178125 -357.67164063 165.785625 -357.01953125 165.03125 C-355.33837953 163.09234733 -353.64217314 161.16824267 -351.9375 159.25 C-351.29941406 158.53070313 -350.66132813 157.81140625 -350.00390625 157.0703125 C-347.6628823 154.45008386 -345.30385351 151.84738802 -342.9375 149.25 C-342.41736328 148.67797852 -341.89722656 148.10595703 -341.36132812 147.51660156 C-333.56953882 138.97265687 -325.56538905 130.94731779 -316.9375 123.25 C-315.92610885 122.31756748 -314.91701751 121.38263468 -313.91015625 120.4453125 C-291.87526796 99.93801579 -267.23540254 82.3436653 -241.50341797 66.80175781 C-239.00747725 65.29231926 -236.52115453 63.76792677 -234.03515625 62.2421875 C-232.52412109 61.3269954 -231.01243712 60.41287337 -229.5 59.5 C-228.82066406 59.08153809 -228.14132812 58.66307617 -227.44140625 58.23193359 C-223.60204951 55.94554247 -220.47815931 54.67108123 -215.9375 54.25 C-215.9375 53.59 -215.9375 52.93 -215.9375 52.25 C-183.31244289 35.90962758 -145.61617752 17.32540861 -108.9375 13.25 C-108.6075 12.92 -108.2775 12.59 -107.9375 12.25 C-105.8802083 11.93076508 -103.82136479 11.73838648 -101.75 11.53125 C-99.9207467 11.43001957 -99.9207467 11.43001957 -98.9375 10.25 C-96.58762738 10.01472227 -94.23193961 9.83613583 -91.875 9.6875 C-90.58464844 9.60371094 -89.29429687 9.51992187 -87.96484375 9.43359375 C-86.96582031 9.37300781 -85.96679688 9.31242188 -84.9375 9.25 C-84.9375 8.59 -84.9375 7.93 -84.9375 7.25 C-71.78819688 4.90902558 -58.68719888 3.1688395 -45.3449707 2.59155273 C-41.51451794 2.47553981 -41.51451794 2.47553981 -37.9375 1.25 C-25.35848748 -0.0733327 -12.63322958 0.00768841 0 0 Z " fill="#000000" transform="translate(672.9375,203.75)"/>
<path d="M0 0 C173.25 0 346.5 0 525 0 C524.27424882 5.80600941 523.40161734 10.3969467 521.4609375 15.75390625 C520.95793332 17.19973069 520.45534137 18.6456986 519.953125 20.09179688 C519.1643072 22.33407541 518.37072486 24.574438 517.56933594 26.81225586 C516.79063082 28.99669093 516.03105181 31.18708279 515.2734375 33.37890625 C515.0308017 34.03951553 514.78816589 34.70012482 514.53817749 35.38075256 C511.93958947 42.97428367 514.21439389 49.22131128 516.72265625 56.453125 C516.98759384 57.23516296 517.25253143 58.01720093 517.52549744 58.82293701 C518.36538405 61.30063735 519.21316461 63.77552415 520.0625 66.25 C520.91482732 68.73894004 521.7652954 71.22844436 522.61021423 73.71990967 C523.13436338 75.26509235 523.66282477 76.80882048 524.19606018 78.35089111 C525.21661851 81.3559997 526 83.8028028 526 87 C352.42 87 178.84 87 0 87 C1.30427399 81.13076703 2.6371438 75.74579806 4.63671875 70.1484375 C5.13667298 68.70593881 5.63600382 67.26322392 6.13476562 65.8203125 C6.9117022 63.58868092 7.69319395 61.35900328 8.4855957 59.1328125 C9.25807894 56.95505451 10.01116274 54.77133339 10.76171875 52.5859375 C11.12096687 51.59972916 11.12096687 51.59972916 11.48747253 50.59359741 C14.05788256 43.00783437 11.77235889 36.73575501 9.27734375 29.51171875 C9.01240616 28.72730911 8.74746857 27.94289948 8.47450256 27.13471985 C7.63457537 24.65032155 6.78660464 22.16877512 5.9375 19.6875 C5.08592426 17.18802311 4.23612359 14.68797729 3.38978577 12.1867218 C2.86447404 10.63529615 2.33595815 9.084951 1.80393982 7.53581238 C0 2.22340487 0 2.22340487 0 0 Z " fill="#6CDEF1" transform="translate(298,686)"/>
<path d="M0 0 C1.00661682 -0.00067474 2.01323364 -0.00134949 3.050354 -0.00204468 C21.22435296 0.01715612 39.03428781 0.94526347 57.0625 3.25 C58.98763428 3.49145752 58.98763428 3.49145752 60.95166016 3.73779297 C104.21068507 9.35914423 150.04014477 19.86899613 188.89257812 40.17822266 C191.07778523 41.25754975 193.26925051 42.11641125 195.5625 42.9375 C201.57831152 45.24611557 207.07642079 48.50503176 212.64257812 51.72143555 C216.70774511 54.04760462 220.52252651 55.96319223 225.0625 57.25 C225.0625 57.91 225.0625 58.57 225.0625 59.25 C225.75085938 59.5078125 226.43921875 59.765625 227.1484375 60.03125 C260.27557404 73.88603096 290.84462851 100.32619227 317.0625 124.25 C317.949375 125.0440625 318.83625 125.838125 319.75 126.65625 C325.95619254 132.255315 331.95384968 138.03753103 337.875 143.9375 C338.58019775 144.63810547 339.28539551 145.33871094 340.01196289 146.06054688 C344.5658932 150.62790427 348.86578662 155.35414818 353.0625 160.25 C354.04758135 161.37942612 355.03323244 162.50835565 356.01953125 163.63671875 C362.66392387 171.29512887 369.01400717 179.11126775 375.0625 187.25 C375.54799316 187.89888184 376.03348633 188.54776367 376.53369141 189.21630859 C429.14077814 259.77384245 459.66271737 342.87555651 468.0625 430.25 C468.2171875 431.84013916 468.2171875 431.84013916 468.375 433.46240234 C469.34804184 444.99468571 469.30615105 456.55925558 469.3125 468.125 C469.31351212 469.78739212 469.31351212 469.78739212 469.31454468 471.48336792 C469.29676608 489.93738546 468.49516588 507.94448591 466.0625 526.25 C465.88890603 527.60039053 465.71557244 528.95081456 465.54248047 530.30126953 C459.44951627 577.21912795 446.61520069 623.55853811 426.0625 666.25 C425.53027832 667.36213867 424.99805664 668.47427734 424.44970703 669.62011719 C412.56447435 694.36873232 399.05580777 717.89630954 383.0625 740.25 C382.48612793 741.05695312 381.90975586 741.86390625 381.31591797 742.6953125 C374.39287703 752.34183201 367.26591636 761.71300086 359.44970703 770.65234375 C357.94938797 772.38027193 356.47132764 774.12561578 354.99609375 775.875 C350.18086903 781.57310365 345.3620375 787.14666776 339.98242188 792.32714844 C338.15788132 794.15447314 336.4885699 796.04203245 334.8203125 798.01171875 C331.19947425 802.179162 327.30723362 805.94946293 323.25 809.6875 C322.54568848 810.34073242 321.84137695 810.99396484 321.11572266 811.66699219 C319.72312287 812.95635357 318.32866091 814.24370731 316.93212891 815.52880859 C315.3803522 816.95738339 313.8357257 818.39372047 312.29296875 819.83203125 C306.08817176 825.54291405 299.50740964 830.70641726 292.84179688 835.86035156 C291.15492204 837.17781747 289.48859036 838.51666213 287.828125 839.8671875 C267.16937043 856.59005012 244.34480267 870.51348508 221.0625 883.25 C220.40056641 883.61254883 219.73863281 883.97509766 219.05664062 884.34863281 C205.923304 891.5151717 205.923304 891.5151717 199.1875 894.265625 C196.81778802 895.32242975 196.81778802 895.32242975 193.7421875 897.19140625 C190.33649379 899.15984301 186.8902114 900.58848151 183.1875 901.9375 C182.51315918 902.18387207 181.83881836 902.43024414 181.14404297 902.68408203 C179.62698618 903.23699031 178.10885567 903.78695859 176.58984375 904.33447266 C173.84655303 905.32822654 171.11084281 906.34139884 168.375 907.35546875 C153.42754045 912.86009365 138.35533744 917.79446616 123.0625 922.25 C122.21526367 922.49733887 121.36802734 922.74467773 120.49511719 922.99951172 C101.61147897 928.43195056 82.26655159 931.81194518 62.8125 934.4375 C61.66740967 934.59226807 60.52231934 934.74703613 59.3425293 934.90649414 C55.58621118 935.39067925 51.82678159 935.83340456 48.0625 936.25 C46.883461 936.38240585 46.883461 936.38240585 45.68060303 936.51748657 C30.66889108 938.16154757 15.78201387 938.61312574 0.6875 938.5625 C-0.44780151 938.56067719 -1.58310303 938.55885437 -2.75280762 938.55697632 C-21.32797777 938.50697652 -39.51803535 937.76362366 -57.9375 935.25 C-58.91314911 935.1191803 -58.91314911 935.1191803 -59.9085083 934.98571777 C-94.0431065 930.39568968 -127.1351486 922.5484707 -159.53515625 910.79296875 C-162.72652541 909.64232676 -165.93751093 908.64519669 -169.1953125 907.69921875 C-172.58740017 906.69942832 -175.64336748 905.59258162 -178.75 903.875 C-182.46960677 901.92249613 -186.17626922 900.37120787 -190.125 898.9375 C-195.92261197 896.77626004 -201.2537024 894.10284564 -206.64916992 891.10424805 C-210.02531549 889.23262368 -213.41149879 887.61385549 -216.97265625 886.13037109 C-221.26938259 884.20517289 -225.3721059 881.88382007 -229.5 879.625 C-230.47001953 879.09519531 -231.44003906 878.56539062 -232.43945312 878.01953125 C-240.17481109 873.75351988 -247.61297764 869.18609116 -254.9375 864.25 C-256.05125 863.54875 -257.165 862.8475 -258.3125 862.125 C-259.17875 861.50625 -260.045 860.8875 -260.9375 860.25 C-260.9375 859.59 -260.9375 858.93 -260.9375 858.25 C-261.7728125 858.0953125 -261.7728125 858.0953125 -262.625 857.9375 C-265.4144101 857.10821592 -267.5514064 855.90700944 -269.9375 854.25 C-269.9375 853.59 -269.9375 852.93 -269.9375 852.25 C-270.6078125 852.03214844 -271.278125 851.81429687 -271.96875 851.58984375 C-275.88024856 849.82452269 -279.03981205 847.41099621 -282.4375 844.8125 C-283.13875 844.28116455 -283.84 843.7498291 -284.5625 843.20239258 C-291.22152511 838.11387803 -297.61522877 832.74800841 -303.9375 827.25 C-304.65035156 826.63769531 -305.36320313 826.02539062 -306.09765625 825.39453125 C-308.06077337 823.69746286 -310.0016864 821.97814011 -311.9375 820.25 C-312.73414063 819.54617188 -313.53078125 818.84234375 -314.3515625 818.1171875 C-321.36572242 811.81432267 -328.07286258 805.2205417 -334.75 798.5625 C-335.64549561 797.67159668 -336.54099121 796.78069336 -337.46362305 795.86279297 C-342.49532215 790.81936496 -347.32770706 785.68104824 -351.9375 780.25 C-352.62646362 779.45154663 -352.62646362 779.45154663 -353.3293457 778.63696289 C-409.64918254 713.36215665 -448.99448004 633.47410746 -467.9375 507.25 C-468.03321289 506.32832031 -468.12892578 505.40664063 -468.22753906 504.45703125 C-474.57084525 435.43094671 -462.5240383 363.80971287 -437.625 299.4375 C-437.24306992 298.44956955 -437.24306992 298.44956955 -436.85342407 297.44168091 C-434.43236343 291.21233349 -431.97155469 285.08130633 -428.87451172 279.15649414 C-427.78657673 276.94292345 -426.89158762 274.68864324 -425.99609375 272.390625 C-411.06791598 234.33356898 -385.80020843 197.84974642 -358.9375 167.25 C-358.30457031 166.5178125 -357.67164063 165.785625 -357.01953125 165.03125 C-355.33837953 163.09234733 -353.64217314 161.16824267 -351.9375 159.25 C-351.29941406 158.53070313 -350.66132813 157.81140625 -350.00390625 157.0703125 C-347.6628823 154.45008386 -345.30385351 151.84738802 -342.9375 149.25 C-342.41736328 148.67797852 -341.89722656 148.10595703 -341.36132812 147.51660156 C-333.56953882 138.97265687 -325.56538905 130.94731779 -316.9375 123.25 C-315.92610885 122.31756748 -314.91701751 121.38263468 -313.91015625 120.4453125 C-291.87526796 99.93801579 -267.23540254 82.3436653 -241.50341797 66.80175781 C-239.00747725 65.29231926 -236.52115453 63.76792677 -234.03515625 62.2421875 C-232.52412109 61.3269954 -231.01243712 60.41287337 -229.5 59.5 C-228.82066406 59.08153809 -228.14132812 58.66307617 -227.44140625 58.23193359 C-223.60204951 55.94554247 -220.47815931 54.67108123 -215.9375 54.25 C-215.9375 53.59 -215.9375 52.93 -215.9375 52.25 C-183.31244289 35.90962758 -145.61617752 17.32540861 -108.9375 13.25 C-108.6075 12.92 -108.2775 12.59 -107.9375 12.25 C-105.8802083 11.93076508 -103.82136479 11.73838648 -101.75 11.53125 C-99.9207467 11.43001957 -99.9207467 11.43001957 -98.9375 10.25 C-96.58762738 10.01472227 -94.23193961 9.83613583 -91.875 9.6875 C-90.58464844 9.60371094 -89.29429687 9.51992187 -87.96484375 9.43359375 C-86.96582031 9.37300781 -85.96679688 9.31242188 -84.9375 9.25 C-84.9375 8.59 -84.9375 7.93 -84.9375 7.25 C-71.78819688 4.90902558 -58.68719888 3.1688395 -45.3449707 2.59155273 C-41.51451794 2.47553981 -41.51451794 2.47553981 -37.9375 1.25 C-25.35848748 -0.0733327 -12.63322958 0.00768841 0 0 Z M-40.4375 16.1875 C-46.38993378 17.27783726 -52.3498909 17.76223244 -58.375 18.25 C-66.63979946 18.91936284 -74.77140229 19.77665416 -82.9375 21.25 C-82.9375 21.91 -82.9375 22.57 -82.9375 23.25 C-84.24203125 23.17007813 -85.5465625 23.09015625 -86.890625 23.0078125 C-94.72500632 23.02155703 -102.15644732 25.17677067 -109.6875 27.125 C-110.47617462 27.32596283 -111.26484924 27.52692566 -112.0774231 27.73397827 C-138.19467081 34.40952826 -163.26178993 43.4346077 -187.9375 54.25 C-188.84032715 54.64541992 -189.7431543 55.04083984 -190.67333984 55.44824219 C-233.33074198 74.36812342 -272.9766736 101.97758472 -307.10546875 133.63671875 C-309.68863869 136.02036108 -312.30569248 138.35790961 -314.9375 140.6875 C-322.78571522 147.73951948 -330.34286711 155.17249706 -337.1796875 163.21484375 C-339.2901414 165.65828038 -341.49042879 168.00918821 -343.6875 170.375 C-349.46975025 176.72499385 -354.72616046 183.42852408 -359.9375 190.25 C-360.43040527 190.89130859 -360.92331055 191.53261719 -361.43115234 192.19335938 C-368.67009216 201.62796347 -375.51750036 211.24042391 -381.9375 221.25 C-382.41767578 221.9925 -382.89785156 222.735 -383.39257812 223.5 C-424.0517903 286.64380844 -448.83315615 360.24365389 -453.9375 435.25 C-454.04910116 436.68232117 -454.16106421 438.1146142 -454.2734375 439.546875 C-455.32586225 454.08454936 -455.1257401 468.68542298 -454.9375 483.25 C-454.92493164 484.22984863 -454.91236328 485.20969727 -454.89941406 486.21923828 C-453.90728879 542.01109917 -440.42962804 599.26084216 -417.9375 650.25 C-417.24817383 651.81741943 -417.24817383 651.81741943 -416.54492188 653.41650391 C-409.23051554 669.9019427 -401.18218109 685.76627031 -391.9375 701.25 C-391.40125 702.15331055 -390.865 703.05662109 -390.3125 703.98730469 C-375.79728949 728.31598385 -358.74443034 751.06875131 -339.9375 772.25 C-338.64779297 773.70792969 -338.64779297 773.70792969 -337.33203125 775.1953125 C-331.07299273 782.16114621 -324.49083604 788.82182235 -317.89541626 795.46731567 C-316.89922454 796.47154555 -315.90451792 797.47725132 -314.91146851 798.48458862 C-309.00554581 804.46646126 -302.93522384 810.08043921 -296.34448242 815.31054688 C-294.08430637 817.13170912 -291.94111125 819.02796103 -289.8125 821 C-273.52368709 835.58785722 -254.91178656 848.01368982 -236.4375 859.625 C-235.54708008 860.19089844 -234.65666016 860.75679687 -233.73925781 861.33984375 C-232.90749023 861.85417969 -232.07572266 862.36851562 -231.21875 862.8984375 C-230.48720703 863.35395996 -229.75566406 863.80948242 -229.00195312 864.27880859 C-226.71449967 865.53378911 -226.71449967 865.53378911 -222.9375 865.25 C-222.9375 865.91 -222.9375 866.57 -222.9375 867.25 C-219.37989635 869.86588503 -216.29272853 870.74357808 -211.9375 871.25 C-211.9375 871.91 -211.9375 872.57 -211.9375 873.25 C-200.35945144 879.24120752 -200.35945144 879.24120752 -188.34375 884.265625 C-186.2155438 885.13625481 -184.2389234 886.11211869 -182.19921875 887.16796875 C-178.00135992 889.29479254 -173.71019599 890.83373976 -169.25 892.3125 C-164.42852242 893.91117814 -160.29260464 895.59844693 -155.9375 898.25 C-153.79351417 899.04338089 -151.62418546 899.7707653 -149.4375 900.4375 C-148.3340625 900.78167969 -147.230625 901.12585937 -146.09375 901.48046875 C-143.21760201 902.1817078 -140.87725047 902.40905366 -137.9375 902.25 C-137.9375 902.91 -137.9375 903.57 -137.9375 904.25 C-129.64300752 906.35218348 -121.3410026 908.41169739 -113.0078125 910.35546875 C-112.2716571 910.5272464 -111.53550171 910.69902405 -110.77703857 910.87600708 C-107.76374716 911.57802174 -104.75005338 912.27827332 -101.73583984 912.97631836 C-99.49265106 913.49635823 -97.25019283 914.01945565 -95.0078125 914.54296875 C-94.32461945 914.70024948 -93.64142639 914.85753021 -92.93753052 915.01957703 C-88.16421513 916.13664244 -88.16421513 916.13664244 -85.9375 917.25 C-83.38055861 917.66510006 -80.83317318 918.03484764 -78.265625 918.37109375 C-77.48524368 918.47541718 -76.70486237 918.5797406 -75.90083313 918.68722534 C-47.64101083 922.42590597 -19.82988193 924.41302111 8.6875 924.4375 C10.30952835 924.43926743 10.30952835 924.43926743 11.96432495 924.44107056 C15.05181089 924.44068842 18.13910854 924.43147878 21.2265625 924.41796875 C22.16058395 924.41675018 23.09460541 924.41553162 24.05693054 924.41427612 C24.92195694 924.40800201 25.78698334 924.40172791 26.67822266 924.39526367 C27.43156891 924.39145187 28.18491516 924.38764008 28.96109009 924.38371277 C31.10952852 924.24700757 32.98766028 923.805786 35.0625 923.25 C36.98005925 923.06138477 38.90147612 922.910336 40.82421875 922.78515625 C42.50354492 922.66817383 42.50354492 922.66817383 44.21679688 922.54882812 C46.55256269 922.39259393 48.88850021 922.23890387 51.22460938 922.08789062 C57.02016269 921.67984652 62.53571471 921.08612503 68.17895508 919.69360352 C70.62868098 919.11665576 73.05551715 918.87393702 75.5625 918.6875 C78.61686702 918.67469913 78.61686702 918.67469913 81.0625 917.25 C83.39118255 916.92327158 85.72590383 916.6392579 88.0625 916.375 C93.30903304 915.74155219 98.10465192 914.77738388 103.0546875 912.9140625 C106.34523649 911.82574863 109.62012008 911.56294363 113.0625 911.25 C113.0625 910.59 113.0625 909.93 113.0625 909.25 C114.10921875 909.16492187 115.1559375 909.07984375 116.234375 908.9921875 C122.45726989 908.20409958 128.34426254 906.2458734 134.3125 904.375 C134.94199554 904.17847839 135.57149109 903.98195679 136.22006226 903.77947998 C193.4354358 885.8314954 246.11035029 856.65870516 292.0625 818.25 C292.5786084 817.82025879 293.0947168 817.39051758 293.62646484 816.94775391 C317.8043614 796.75498691 339.78064172 774.17358718 359.0625 749.25 C359.49498047 748.69151367 359.92746094 748.13302734 360.37304688 747.55761719 C380.1464675 721.91184325 396.58797954 694.18868348 411.0625 665.25 C411.4445459 664.49912109 411.8265918 663.74824219 412.22021484 662.97460938 C451.34203306 585.86812846 463.64097755 490.66758022 433.80200195 330.71240234 C428.62938712 314.91438734 422.9699942 299.38220882 416.0625 284.25 C415.29365479 282.56414795 415.29365479 282.56414795 414.50927734 280.84423828 C391.0581274 229.93301728 358.83138295 185.03808739 319.3125 145.375 C318.4251416 144.48296875 317.5377832 143.5909375 316.62353516 142.671875 C311.59640067 137.65697657 306.46422625 132.85705619 301.0625 128.25 C299.97934265 127.3007626 298.89726171 126.35029514 297.81640625 125.3984375 C291.30769165 119.72199802 284.65503006 114.27041103 277.8125 109 C277.07330322 108.42685059 276.33410645 107.85370117 275.57250977 107.26318359 C274.88342529 106.73805176 274.19434082 106.21291992 273.484375 105.671875 C272.87174805 105.20362305 272.25912109 104.73537109 271.62792969 104.25292969 C270.09168706 103.0701813 270.09168706 103.0701813 268.0625 103.25 C268.0625 102.59 268.0625 101.93 268.0625 101.25 C264.84135843 98.93407978 264.84135843 98.93407978 261.0625 98.25 C261.0625 97.59 261.0625 96.93 261.0625 96.25 C258.92222937 94.82315291 256.79173196 93.52502603 254.5625 92.25 C253.18925776 91.4467578 251.81689184 90.64201592 250.4453125 89.8359375 C249.72762695 89.41538086 249.00994141 88.99482422 248.27050781 88.56152344 C244.62121409 86.39389784 241.02967497 84.13562178 237.4375 81.875 C235.53470375 80.67810966 233.63165081 79.48171786 231.72558594 78.29003906 C230.22357503 77.35073101 228.72486592 76.4061482 227.2265625 75.4609375 C225.18491526 74.08722815 225.18491526 74.08722815 223.0625 74.25 C223.0625 73.59 223.0625 72.93 223.0625 72.25 C217.7025004 69.83749273 217.7025004 69.83749273 212.0625 68.25 C212.0625 67.59 212.0625 66.93 212.0625 66.25 C209.2100441 64.8090873 206.35523112 63.37290458 203.5 61.9375 C202.70013672 61.53337891 201.90027344 61.12925781 201.07617188 60.71289062 C196.46196318 58.39636952 191.83167182 56.23500665 187.0625 54.25 C185.30720297 53.50541739 183.55200408 52.76060341 181.796875 52.015625 C172.11218731 47.93445226 162.41892088 43.90096767 152.5625 40.25 C151.81709961 39.97188477 151.07169922 39.69376953 150.30371094 39.40722656 C146.36692364 37.97322628 142.48233076 36.8618417 138.39794922 35.90405273 C135.45504537 35.07987968 132.64771136 33.99095648 129.7890625 32.91015625 C120.8565583 29.67007392 111.7160569 27.67535692 102.4375 25.6875 C101.54086639 25.49268036 100.64423279 25.29786072 99.72042847 25.09713745 C84.24482241 21.74394912 68.79316949 19.11365747 53.0625 17.25 C51.39440589 17.03743985 49.72642733 16.82396981 48.05859375 16.609375 C31.16095591 14.50256773 14.25845634 14.15948311 -2.75 14.125 C-3.48926727 14.12232117 -4.22853455 14.11964233 -4.99020386 14.11688232 C-22.79633678 14.05076742 -22.79633678 14.05076742 -40.4375 16.1875 Z " fill="#6ADAEC" transform="translate(672.9375,203.75)"/>
<path d="M0 0 C1.78654194 1.15454292 1.78654194 1.15454292 3.44856262 2.80691528 C4.0864975 3.42930588 4.72443237 4.05169647 5.38169861 4.69294739 C6.06502762 5.38482651 6.74835663 6.07670563 7.45239258 6.78955078 C8.55076447 7.87237083 8.55076447 7.87237083 9.67132568 8.97706604 C12.09194625 11.37054865 14.4936716 13.78201983 16.89453125 16.1953125 C18.56824405 17.86311943 20.24262557 19.53025552 21.91764832 21.19674683 C25.4270052 24.69421076 28.92688583 28.20083356 32.4206543 31.71386719 C36.90255906 36.21865438 41.40881459 40.69814508 45.92270374 45.17085457 C49.38627547 48.60887171 52.83568118 52.06082794 56.2810421 55.51708603 C57.93712357 57.17465643 59.59781699 58.82763207 61.2631321 60.47592545 C63.58832078 62.78119122 65.89355703 65.1047286 68.19458008 67.43408203 C68.88803024 68.11381577 69.58148041 68.7935495 70.29594421 69.49388123 C74.88224891 74.19394582 74.88224891 74.19394582 75.49055481 78.35804749 C74.94887346 81.27534926 74.40486179 82.37141623 72.3671875 84.48828125 C71.72620117 85.16584473 71.08521484 85.8434082 70.42480469 86.54150391 C69.62461914 87.35280762 68.82443359 88.16411133 68 89 C66.97991974 90.05954285 65.96078406 91.11999558 64.94238281 92.18115234 C61.98876356 95.24420661 59.00260483 98.27335071 56.00341797 101.29174805 C54.7502199 102.55651059 53.50151292 103.82573886 52.25732422 105.09936523 C36.57618574 121.149933 36.57618574 121.149933 27.56640625 122.5234375 C26.57511719 122.47445312 25.58382812 122.42546875 24.5625 122.375 C23.55316406 122.34148437 22.54382813 122.30796875 21.50390625 122.2734375 C19 122 19 122 17 121 C16.96116699 121.75321533 16.92233398 122.50643066 16.88232422 123.2824707 C16.24983331 133.67894475 14.95115027 143.94929994 13.52587891 154.26293945 C13.12072531 157.21868546 12.73415937 160.17653018 12.34765625 163.13476562 C12.08967483 165.02098866 11.83060103 166.90706269 11.5703125 168.79296875 C11.45769073 169.67413864 11.34506897 170.55530853 11.22903442 171.46318054 C11.1123642 172.2786586 10.99569397 173.09413666 10.87548828 173.93432617 C10.77857697 174.64932785 10.68166565 175.36432953 10.58181763 176.10099792 C9.83575023 178.53609694 9.04202169 179.47580578 7 181 C4.56036377 181.77163696 4.56036377 181.77163696 1.62988281 182.33447266 C0.53154114 182.55124664 -0.56680054 182.76802063 -1.69842529 182.99136353 C-2.8859137 183.21335419 -4.0734021 183.43534485 -5.296875 183.6640625 C-7.13007294 184.02037247 -7.13007294 184.02037247 -9.00030518 184.38388062 C-12.25119686 185.01329865 -15.50372054 185.63240989 -18.75744629 186.24688721 C-22.04844692 186.87139707 -25.33649451 187.51092034 -28.625 188.1484375 C-48.24220568 191.9322981 -48.24220568 191.9322981 -53.23925781 192.58740234 C-55.90414318 192.7058691 -55.90414318 192.7058691 -57 194 C-58.92996776 194.35607157 -60.86986949 194.65866454 -62.8125 194.9375 C-64.56240234 195.19660156 -64.56240234 195.19660156 -66.34765625 195.4609375 C-67.55292969 195.63882813 -68.75820313 195.81671875 -70 196 C-72.25110141 196.3470972 -74.50120688 196.70074937 -76.75 197.0625 C-77.73484375 197.21847656 -78.7196875 197.37445312 -79.734375 197.53515625 C-81.95832411 197.77480433 -81.95832411 197.77480433 -83 199 C-85.09860466 199.32931029 -87.20451282 199.61236553 -89.3125 199.875 C-95.03075133 200.65133807 -100.47689117 201.80350142 -106.05078125 203.26953125 C-113.17275668 205.03351722 -120.63957426 206.64003702 -128 206 C-130 204 -130 204 -130.04577637 202.00349426 C-129.26778198 195.6230392 -128.2416186 189.32414302 -127.03125 183.01171875 C-126.83508591 181.97124893 -126.63892181 180.93077911 -126.43681335 179.85877991 C-125.79582269 176.46745983 -125.1482077 173.07744744 -124.5 169.6875 C-124.04978618 167.31740178 -123.59967352 164.94728435 -123.1496582 162.57714844 C-119.37779047 142.76598309 -115.45689737 122.98583178 -111.45050049 103.22090149 C-110.41423693 98.09544468 -109.41046843 92.96523819 -108.43359375 87.828125 C-108.20712158 86.64895508 -107.98064941 85.46978516 -107.74731445 84.25488281 C-107.35114923 82.18282522 -106.96216782 80.10937174 -106.58276367 78.03417969 C-106.41365479 77.15665039 -106.2445459 76.27912109 -106.0703125 75.375 C-105.93383301 74.64023437 -105.79735352 73.90546875 -105.65673828 73.1484375 C-104.7587077 70.21064228 -104.01427682 68.37089634 -102 66 C-98.99664934 65.21822715 -96.43449256 64.77564404 -93.37890625 64.48828125 C-92.52376938 64.38911911 -91.66863251 64.28995697 -90.7875824 64.18778992 C-88.04779474 63.87448754 -85.30585787 63.59264094 -82.5625 63.3125 C-79.85905128 63.0156062 -77.15637652 62.7122926 -74.45370483 62.40841675 C-72.70359699 62.21256522 -70.95312629 62.01992781 -69.20230103 61.83059692 C-63.58648085 61.21584558 -58.0389171 60.42137426 -52.48803711 59.35620117 C-49.63404162 58.94760737 -46.87921169 58.94259924 -44 59 C-44.15984375 58.42765625 -44.3196875 57.8553125 -44.484375 57.265625 C-46.02207147 50.50907989 -45.29561699 44.08374945 -42 38 C-35.97651437 30.32137027 -28.78888225 23.49966449 -21.92919922 16.57910156 C-20.55079321 15.18398562 -19.17779568 13.78350675 -17.81005859 12.37792969 C-15.82021308 10.33353537 -13.81460681 8.30588857 -11.8046875 6.28125 C-11.19623993 5.65013306 -10.58779236 5.01901611 -9.96090698 4.36877441 C-9.38325592 3.79397339 -8.80560486 3.21917236 -8.21044922 2.62695312 C-7.70971893 2.11813599 -7.20898865 1.60931885 -6.69308472 1.08508301 C-4.33066144 -0.42897316 -2.76798602 -0.258002 0 0 Z " fill="#68D7E9" transform="translate(972,570)"/>
<path d="M0 0 C1.71095276 1.4503479 1.71095276 1.4503479 3.26391602 3.46728516 C7.11378503 8.19736717 11.36624916 12.32075624 15.77734375 16.5234375 C17.4421033 18.13663082 19.10547492 19.75125744 20.76757812 21.3671875 C23.35836865 23.88385694 25.95528893 26.39186566 28.57641602 28.87695312 C31.12532423 31.29845165 33.64070993 33.75087265 36.15234375 36.2109375 C36.9397142 36.94355804 37.72708466 37.67617859 38.53831482 38.43099976 C42.16177806 42.03436723 44.47700669 44.56916275 44.58618164 49.81835938 C44.43869009 51.55032116 44.24102922 53.27856156 44 55 C43.90021347 55.91133698 43.80042694 56.82267395 43.69761658 57.7616272 C43.34361988 60.74980711 42.91535496 63.71962046 42.46875 66.6953125 C42.31337769 67.76876923 42.15800537 68.84222595 41.9979248 69.94821167 C41.50524234 73.34148019 41.00279004 76.73321599 40.5 80.125 C40.16211099 82.44000947 39.82486508 84.75511291 39.48828125 87.0703125 C38.66628497 92.71464914 37.83628523 98.35776374 37 104 C33.41432277 105.57019051 30.12217373 106.43185515 26.25390625 107 C25.16916016 107.165 24.08441406 107.33 22.96679688 107.5 C21.84337891 107.665 20.71996094 107.83 19.5625 108 C17.33391035 108.32845075 15.1060127 108.66163843 12.87890625 109 C11.40272827 109.2165625 11.40272827 109.2165625 9.89672852 109.4375 C6.94988968 109.94415222 6.94988968 109.94415222 4.0065918 111.00219727 C0.98114703 112.00625677 -1.83052671 112.52916113 -4.984375 112.96484375 C-12.10584873 114.00027121 -19.17420949 115.2537506 -26.25 116.5625 C-27.47074219 116.78357422 -28.69148437 117.00464844 -29.94921875 117.23242188 C-31.10550781 117.44576172 -32.26179687 117.65910156 -33.453125 117.87890625 C-34.49629883 118.0704126 -35.53947266 118.26191895 -36.61425781 118.45922852 C-38.94157623 118.76380963 -38.94157623 118.76380963 -40 120 C-41.5950507 120.35611826 -43.20212787 120.65873744 -44.8125 120.9375 C-45.80636719 121.11023438 -46.80023437 121.28296875 -47.82421875 121.4609375 C-48.87222656 121.63882813 -49.92023437 121.81671875 -51 122 C-52.01707031 122.17789063 -53.03414062 122.35578125 -54.08203125 122.5390625 C-60.04429098 123.56466302 -65.98017186 124.39801719 -72 125 C-65.1139288 116.77294628 -57.56004553 109.22652641 -50.01391602 101.60888672 C-48.28824942 99.86147145 -46.56888496 98.1078112 -44.85571289 96.34814453 C-42.37507452 93.80094841 -39.87562193 91.27368282 -37.37109375 88.75 C-36.60639267 87.95746826 -35.84169159 87.16493652 -35.05381775 86.34838867 C-34.33279373 85.63013916 -33.61176971 84.91188965 -32.86889648 84.171875 C-32.24079575 83.5334668 -31.61269501 82.89505859 -30.96556091 82.23730469 C-29 81 -29 81 -26.43959045 81.2890625 C-25.6345256 81.52367187 -24.82946075 81.75828125 -24 82 C-14.4788469 82.72741065 -14.4788469 82.72741065 -6 79 C-0.79405497 73.90722769 2.25392136 69.14943188 2.4375 61.6875 C2.30370303 54.5962607 -0.47212703 50.46305572 -5.4375 45.625 C-10.61577877 42.34121346 -15.89545666 41.08374584 -22 42 C-27.90399101 43.92070687 -31.4955315 46.94944245 -35 52 C-36.72571242 55.61978703 -37.24989226 58.43872316 -37.1875 62.4375 C-37.17783203 63.79681641 -37.17783203 63.79681641 -37.16796875 65.18359375 C-37.08755941 68.04150858 -37.08755941 68.04150858 -36.25563049 70.89248657 C-36 74 -36 74 -37.47422791 76.31600952 C-38.22257401 77.04881134 -38.9709201 77.78161316 -39.74194336 78.53662109 C-40.58289047 79.37703949 -41.42383759 80.21745789 -42.29026794 81.08334351 C-43.67605797 82.41494003 -43.67605797 82.41494003 -45.08984375 83.7734375 C-46.02349258 84.6971817 -46.95714142 85.6209259 -47.91908264 86.57266235 C-50.39789538 89.02478593 -52.89700312 91.45516419 -55.40093994 93.8815918 C-57.95372459 96.36268553 -60.48673391 98.86378965 -63.02148438 101.36328125 C-67.99515702 106.26194806 -72.99055843 111.13792443 -78 116 C-79.06988186 112.24722914 -78.79385535 109.62394246 -78.109375 105.7578125 C-77.89410156 104.52546875 -77.67882812 103.293125 -77.45703125 102.0234375 C-77.22371094 100.73695313 -76.99039063 99.45046875 -76.75 98.125 C-76.53214844 96.8771875 -76.31429687 95.629375 -76.08984375 94.34375 C-74.78769732 86.98776492 -73.31905889 79.68316754 -71.72753906 72.38476562 C-70.57037707 67.00124419 -69.5324675 61.59609525 -68.5 56.1875 C-68.1752771 54.49657227 -68.1752771 54.49657227 -67.84399414 52.77148438 C-66.65038036 46.52343199 -65.50789628 40.2702172 -64.4375 34 C-62.92808878 25.26449944 -60.99004748 16.63700812 -59 8 C-57.8253418 7.84966309 -57.8253418 7.84966309 -56.62695312 7.69628906 C-52.91736255 7.21878485 -49.20844054 6.73634198 -45.5 6.25 C-44.82671661 6.1617395 -44.15343323 6.073479 -43.45974731 5.98254395 C-33.08388357 4.61494894 -22.75902504 3.05091233 -12.453125 1.21972656 C-11.53917969 1.05956055 -10.62523437 0.89939453 -9.68359375 0.734375 C-8.89525146 0.59225586 -8.10690918 0.45013672 -7.29467773 0.30371094 C-4.75233994 -0.03277892 -2.56213823 -0.23583092 0 0 Z " fill="#010303" transform="translate(935,638)"/>
<path d="M0 0 C4.25556298 1.65013765 7.09579796 4.82944222 10.23730469 8.01025391 C10.85236374 8.6250209 11.46742279 9.2397879 12.10112 9.8731842 C14.12948258 11.90293824 16.15067226 13.93968075 18.171875 15.9765625 C19.57819697 17.38661525 20.98496164 18.79622658 22.39215088 20.20541382 C26.09222618 23.91312042 29.78625567 27.62679424 33.47906494 31.34173584 C37.24934253 35.13248259 41.02529761 38.91756457 44.80078125 42.703125 C52.2060936 50.12987841 59.60503232 57.56294714 67 65 C65.09139068 69.15281669 62.2762397 72.02971057 59.07421875 75.2265625 C58.4896138 75.81545258 57.90500885 76.40434265 57.3026886 77.01107788 C56.06705561 78.25244335 54.82880751 79.49121053 53.58813477 80.72753906 C51.69590537 82.61660866 49.81738387 84.51860339 47.93945312 86.421875 C46.73518655 87.62841474 45.53013397 88.83417056 44.32421875 90.0390625 C43.76570724 90.60678375 43.20719574 91.174505 42.63175964 91.75942993 C42.09803238 92.28692841 41.56430511 92.81442688 41.0144043 93.35791016 C40.55188766 93.82105621 40.08937103 94.28420227 39.61283875 94.76138306 C35.30451648 98.07005913 30.31466829 98.85231268 25.01098633 98.7305603 C18.64996061 97.18717473 14.46382763 91.82928747 10.09375 87.23828125 C8.99792881 86.12699151 7.89978175 85.01799096 6.79943848 83.91117859 C3.92137889 81.00260462 1.0786726 78.06169183 -1.75854492 75.11334229 C-4.07771222 72.7150866 -6.42100742 70.34122986 -8.76596832 67.96822834 C-11.57094641 65.1287855 -14.36518135 62.27889108 -17.15625 59.42578125 C-17.94972588 58.61530051 -17.94972588 58.61530051 -18.75923157 57.78844643 C-20.25996747 56.25024865 -21.75328798 54.70524281 -23.24414062 53.1574707 C-24.51674744 51.84175835 -24.51674744 51.84175835 -25.81506348 50.49946594 C-29.37787979 46.4237695 -31.45095956 43.1539521 -31.625 37.6875 C-31.67914062 36.80449219 -31.73328125 35.92148437 -31.7890625 35.01171875 C-30.53663792 30.23142491 -27.40561686 27.47773327 -24 24 C-23.32523621 23.30926895 -23.32523621 23.30926895 -22.63684082 22.60458374 C-18.97830824 18.86976173 -15.27378534 15.18227809 -11.5625 11.5 C-10.4379167 10.38044368 -9.31356595 9.26065371 -8.18945312 8.140625 C-5.46230656 5.42438466 -2.73204093 2.71131708 0 0 Z " fill="#010303" transform="translate(969,583)"/>
<path d="M0 0 C3.63 0 7.26 0 11 0 C12.19015518 15.01581359 12.11502311 30.00818884 12.0625 45.0625 C12.05747291 47.58658765 12.05291215 50.11067627 12.04882812 52.63476562 C12.03792311 58.75653203 12.02128167 64.87826133 12 71 C9.03 71 6.06 71 3 71 C2.67 52.85 2.34 34.7 2 16 C0.68 19.3 -0.64 22.6 -2 26 C-2.98931461 28.07780257 -4.00522752 30.14343986 -5.0625 32.1875 C-7.21282065 36.41269145 -9.18326893 40.62332969 -11 45 C-13.49227297 50.762724 -16.1514594 56.40465239 -19 62 C-21.64 62 -24.28 62 -27 62 C-27.35449219 61.12085938 -27.70898438 60.24171875 -28.07421875 59.3359375 C-34.12455033 44.44567073 -40.58926642 29.73807822 -47 15 C-47.33 33.48 -47.66 51.96 -48 71 C-50.97 71 -53.94 71 -57 71 C-57.20638953 23.83523033 -57.20638953 23.83523033 -56 1 C-52.04 1 -48.08 1 -44 1 C-43.40461426 2.35270996 -42.80922852 3.70541992 -42.19580078 5.09912109 C-39.99020202 10.10689421 -37.77850816 15.1119554 -35.56494141 20.11621094 C-34.60688884 22.28441807 -33.65050139 24.45336173 -32.69580078 26.62304688 C-31.32498999 29.7376201 -29.94825582 32.84951448 -28.5703125 35.9609375 C-28.14315948 36.934935 -27.71600647 37.9089325 -27.27590942 38.91244507 C-26.87564545 39.81322784 -26.47538147 40.71401062 -26.06298828 41.64208984 C-25.71213165 42.43706879 -25.36127502 43.23204773 -24.99978638 44.05111694 C-24.04296657 46.16129508 -24.04296657 46.16129508 -22 48 C-19.29310508 43.426281 -17.03648828 38.92151333 -15 34 C-14.35846536 32.53977053 -13.71237781 31.08153549 -13.0625 29.625 C-12.72347656 28.86445312 -12.38445312 28.10390625 -12.03515625 27.3203125 C-11.69355469 26.55460938 -11.35195313 25.78890625 -11 25 C-10.33309257 23.50010703 -9.66642417 22.00010775 -9 20.5 C-7.98973321 18.22590927 -6.97867197 15.95219303 -5.96484375 13.6796875 C-3.939048 9.13512669 -1.94824063 4.57836547 0 0 Z " fill="#66D2E4" transform="translate(355,579)"/>
<path d="M0 0 C1.51400391 0.01740234 1.51400391 0.01740234 3.05859375 0.03515625 C4.07050781 0.04417969 5.08242188 0.05320312 6.125 0.0625 C6.90746094 0.07410156 7.68992187 0.08570313 8.49609375 0.09765625 C9.56119898 23.43649128 9.60830258 46.73923133 9.49609375 70.09765625 C6.52609375 70.09765625 3.55609375 70.09765625 0.49609375 70.09765625 C0.16609375 51.94765625 -0.16390625 33.79765625 -0.50390625 15.09765625 C-1.49390625 17.40765625 -2.48390625 19.71765625 -3.50390625 22.09765625 C-4.14600512 23.55763771 -4.7913103 25.01621811 -5.44140625 26.47265625 C-5.78042969 27.23449219 -6.11945312 27.99632812 -6.46875 28.78125 C-7.1454811 30.29559545 -7.82505217 31.80867581 -8.5078125 33.3203125 C-10.62855884 38.03585436 -12.59401635 42.79236207 -14.4921875 47.6015625 C-15.80290841 50.83534883 -17.22553123 54.01245849 -18.671875 57.1875 C-19.6045684 59.25142281 -19.6045684 59.25142281 -20.50390625 62.09765625 C-23.47390625 62.09765625 -26.44390625 62.09765625 -29.50390625 62.09765625 C-29.86105713 61.27265625 -30.21820801 60.44765625 -30.58618164 59.59765625 C-31.94444717 56.46053773 -33.30304827 53.32356486 -34.66177368 50.18664551 C-35.56221775 48.10732839 -36.46215308 46.02779159 -37.36206055 43.94824219 C-41.11915999 35.26994326 -41.11915999 35.26994326 -44.92578125 26.61328125 C-45.25441162 25.87078125 -45.58304199 25.12828125 -45.92163086 24.36328125 C-46.75458529 22.48691788 -47.59196021 20.61251858 -48.4296875 18.73828125 C-49.50390625 16.09765625 -49.50390625 16.09765625 -49.50390625 14.09765625 C-50.16390625 14.09765625 -50.82390625 14.09765625 -51.50390625 14.09765625 C-51.50390625 32.57765625 -51.50390625 51.05765625 -51.50390625 70.09765625 C-54.14390625 70.09765625 -56.78390625 70.09765625 -59.50390625 70.09765625 C-59.52950848 62.68189237 -59.5468777 55.26614011 -59.55883789 47.8503418 C-59.5638302 45.3337359 -59.57062637 42.81713285 -59.5793457 40.30053711 C-59.6698778 13.47640944 -59.6698778 13.47640944 -58.50390625 1.09765625 C-54.87390625 1.09765625 -51.24390625 1.09765625 -47.50390625 1.09765625 C-42.01355814 11.48121491 -37.2210792 22.13298926 -32.56640625 32.91015625 C-32.27391998 33.58653137 -31.98143372 34.26290649 -31.68008423 34.95977783 C-26.72485831 46.43480008 -26.72485831 46.43480008 -25.50390625 50.09765625 C-21.37898287 42.26505308 -21.37898287 42.26505308 -18.00390625 34.09765625 C-16.39152183 29.50044116 -14.12154496 25.25065705 -11.91796875 20.9140625 C-9.8801614 16.8553357 -8.14105147 12.70982673 -6.47265625 8.48828125 C-6.11171875 7.575625 -5.75078125 6.66296875 -5.37890625 5.72265625 C-5.04632812 4.86929688 -4.71375 4.0159375 -4.37109375 3.13671875 C-3.08831236 0.120449 -3.08831236 0.120449 0 0 Z " fill="#68D6E8" transform="translate(633.50390625,578.90234375)"/>
<path d="M0 0 C0.86625 0.61875 1.7325 1.2375 2.625 1.875 C3.49898438 2.47828125 3.49898438 2.47828125 4.390625 3.09375 C9.33040257 6.82971623 12.23505787 10.80531187 13.625 16.875 C14.79486818 26.87391709 14.66872509 37.28051764 8.31640625 45.5859375 C7 47 7 47 4.625 48.875 C3.965 48.875 3.305 48.875 2.625 48.875 C2.295 49.865 1.965 50.855 1.625 51.875 C-4.63702098 53.96234033 -14.21583143 54.12401924 -20.5 51.75 C-24.01848262 49.45533742 -25.96308026 47.31015841 -28.375 43.875 C-28.375 43.215 -28.375 42.555 -28.375 41.875 C-29.035 41.875 -29.695 41.875 -30.375 41.875 C-33.58482868 32.24551396 -34.64652187 19.49724191 -30.375 10.0625 C-23.78077662 -0.71434506 -11.79764219 -3.9325474 0 0 Z " fill="#65D1E3" transform="translate(414.375,597.125)"/>
<path d="M0 0 C4.38997107 2.93361559 6.44182547 5.64293149 8.5625 10.4375 C9.0575 11.4275 9.0575 11.4275 9.5625 12.4375 C9.5625 17.0575 9.5625 21.6775 9.5625 26.4375 C-1.9875 26.4375 -13.5375 26.4375 -25.4375 26.4375 C-23.32503745 35.18355946 -23.32503745 35.18355946 -18.4375 41.4375 C-13.18339999 44.1286244 -7.21157829 44.02949317 -1.4375 43.4375 C2.01596148 42.09003476 2.01596148 42.09003476 4.5625 40.4375 C5.2225 40.4375 5.8825 40.4375 6.5625 40.4375 C7.0575 43.9025 7.0575 43.9025 7.5625 47.4375 C-1.48829102 51.51922928 -10.4467238 53.00885113 -20.25 50.4375 C-26.87859101 46.27838407 -32.17950546 39.80851214 -33.98828125 32.0859375 C-35.61916207 22.47083145 -34.42991619 14.24824436 -28.859375 6.140625 C-21.40657019 -3.05788184 -10.57983222 -5.83607264 0 0 Z " fill="#64CFE0" transform="translate(774.4375,598.5625)"/>
<path d="M0 0 C4.82097084 3.40995498 7.50583397 6.71805661 10.5625 11.8125 C10.5625 17.0925 10.5625 22.3725 10.5625 27.8125 C-0.6575 27.8125 -11.8775 27.8125 -23.4375 27.8125 C-21.47734143 35.94911038 -21.47734143 35.94911038 -17.4375 42.8125 C-10.02470094 45.9258756 -2.84530197 45.56889143 4.5625 42.8125 C5.8825 42.8125 7.2025 42.8125 8.5625 42.8125 C9.0575 45.2875 9.0575 45.2875 9.5625 47.8125 C1.53940565 52.68928284 -5.43533699 53.86397992 -14.8046875 52.45703125 C-22.30137858 50.52449324 -26.57309565 45.33979681 -30.6015625 38.97265625 C-33.93943866 31.84457492 -33.71710666 22.27927511 -31.59375 14.8671875 C-25.7458107 1.9464027 -13.80042378 -4.76741913 0 0 Z " fill="#65CFE1" transform="translate(548.4375,597.1875)"/>
<path d="M0 0 C4.00631948 1.98971572 6.37364609 5.379207 8.46044922 9.2644043 C9.70147842 13.40058632 9.57432856 17.3190939 9.5234375 21.61328125 C9.5206076 22.51624435 9.51777771 23.41920746 9.51486206 24.34953308 C9.50370107 27.22274234 9.47860397 30.09563555 9.453125 32.96875 C9.44308993 34.92121944 9.433965 36.87369379 9.42578125 38.82617188 C9.40377508 43.60298566 9.36927331 48.37956431 9.328125 53.15625 C6.358125 53.15625 3.388125 53.15625 0.328125 53.15625 C0.32401611 51.94042236 0.31990723 50.72459473 0.31567383 49.47192383 C0.2938683 44.9521267 0.23956387 40.43319837 0.17553711 35.91381836 C0.15236949 33.95947611 0.13796429 32.00500923 0.13256836 30.05053711 C0.12326968 27.23732957 0.08226025 24.42607888 0.03515625 21.61328125 C0.0390889 20.74226273 0.04302155 19.8712442 0.04707336 18.97383118 C-0.05908641 14.5396398 -0.2415139 12.70534504 -3.06201172 9.10668945 C-6.66485854 6.41415968 -8.87020495 6.43534942 -13.23046875 6.67578125 C-17.38475196 7.49334419 -18.91353985 8.9152062 -21.671875 12.15625 C-23.43603756 17.13438905 -23.99766215 21.81837017 -24.0859375 27.05859375 C-24.10530365 27.7811586 -24.1246698 28.50372345 -24.1446228 29.2481842 C-24.20385105 31.52992375 -24.25057355 33.81171533 -24.296875 36.09375 C-24.33510723 37.6517133 -24.37416192 39.20965666 -24.4140625 40.76757812 C-24.50950475 44.56363781 -24.59374168 48.35979622 -24.671875 52.15625 C-27.311875 52.15625 -29.951875 52.15625 -32.671875 52.15625 C-32.671875 35.32625 -32.671875 18.49625 -32.671875 1.15625 C-30.361875 1.15625 -28.051875 1.15625 -25.671875 1.15625 C-25.011875 3.13625 -24.351875 5.11625 -23.671875 7.15625 C-23.135625 6.393125 -22.599375 5.63 -22.046875 4.84375 C-16.3020986 -1.65691804 -8.09024373 -2.55481381 0 0 Z " fill="#63CCDE" transform="translate(717.671875,596.84375)"/>
<path d="M0 0 C3.74863793 1.99395635 6.15558537 4.42528082 8.15625 8.15625 C10.26464517 15.26232261 10.4781319 24.84986044 7.984375 31.8515625 C6.77783674 33.79219933 5.59892922 35.37404662 4 37 C3.57976562 37.54398438 3.15953125 38.08796875 2.7265625 38.6484375 C-0.63473643 41.27968056 -4.72294477 40.69801604 -8.81640625 40.625 C-12.48531495 39.90472345 -13.53415414 39.13473753 -15.75 36.1875 C-18.89290745 30.9903428 -19.24014766 26.27915599 -19.3125 20.3125 C-19.34150391 19.53455078 -19.37050781 18.75660156 -19.40039062 17.95507812 C-19.47331431 11.22927094 -17.84902548 5.91865543 -13.08203125 1.03515625 C-8.88884837 -1.04963449 -4.5303247 -0.7934467 0 0 Z " fill="#020505" transform="translate(410,603)"/>
<path d="M0 0 C2.97 0 5.94 0 9 0 C8.34832622 4.99991934 6.9282176 9.40759517 5.19921875 14.109375 C4.78274834 15.25965179 4.78274834 15.25965179 4.35786438 16.4331665 C3.77102355 18.05105 3.18171597 19.66804065 2.59008789 21.28417969 C1.69605436 23.72662997 0.80925491 26.17160569 -0.07617188 28.6171875 C-2.92548965 36.46490259 -5.83280891 44.27361779 -9 52 C-12.3 52 -15.6 52 -19 52 C-19.21043945 51.2783667 -19.42087891 50.5567334 -19.63769531 49.81323242 C-22.62168247 39.83329823 -26.16204783 30.0877591 -29.75 20.3125 C-30.93593628 17.08074458 -32.11768399 13.84750302 -33.296875 10.61328125 C-33.56868591 9.87692947 -33.84049683 9.1405777 -34.12054443 8.38191223 C-36 3.22557592 -36 3.22557592 -36 1 C-33.03 1 -30.06 1 -27 1 C-26.61142822 2.11560303 -26.22285645 3.23120605 -25.82250977 4.38061523 C-24.38482377 8.50581958 -22.9433609 12.62969559 -21.50073242 16.75317383 C-20.87599659 18.54057181 -20.25229596 20.32833196 -19.62963867 22.11645508 C-18.73626018 24.68145348 -17.83920902 27.24514113 -16.94140625 29.80859375 C-16.6622084 30.6127623 -16.38301056 31.41693085 -16.09535217 32.24546814 C-15.03895442 35.90280512 -15.03895442 35.90280512 -13 39 C-8.71 26.13 -4.42 13.26 0 0 Z " fill="#67D4E6" transform="translate(473,597)"/>
<path d="M0 0 C2.97 0 5.94 0 9 0 C9.48164188 2.35368393 9.96036648 4.70790155 10.4375 7.0625 C10.57220703 7.71927734 10.70691406 8.37605469 10.84570312 9.05273438 C10.97783203 9.70693359 11.10996094 10.36113281 11.24609375 11.03515625 C11.42676392 11.92279663 11.42676392 11.92279663 11.61108398 12.82836914 C12.15616806 15.87201189 12.5627157 18.93900992 13 22 C14.32 14.74 15.64 7.48 17 0 C19.97 0 22.94 0 26 0 C26.33917131 4.14537705 26.67026953 8.29136218 27 12.4375 C27.09539062 13.60216797 27.19078125 14.76683594 27.2890625 15.96679688 C27.79138362 22.33551102 28.1093176 28.61175303 28 35 C25.69 35 23.38 35 21 35 C20.505 23.615 20.505 23.615 20 12 C19.05329654 17.87807478 19.05329654 17.87807478 18.11547852 23.75756836 C17.99615967 24.48596924 17.87684082 25.21437012 17.75390625 25.96484375 C17.63345947 26.7137085 17.5130127 27.46257324 17.38891602 28.23413086 C17 30 17 30 16 31 C14.02 31 12.04 31 10 31 C8.68 25.72 7.36 20.44 6 15 C5.67 21.6 5.34 28.2 5 35 C2.69 35 0.38 35 -2 35 C-1.93941406 34.14921875 -1.87882812 33.2984375 -1.81640625 32.421875 C-1.06953002 21.62089573 -0.51601023 10.81425704 0 0 Z " fill="#0C191B" transform="translate(400,709)"/>
<path d="M0 0 C2.64 0 5.28 0 8 0 C8.33 2.64 8.66 5.28 9 8 C9.40992188 7.50628906 9.81984375 7.01257813 10.2421875 6.50390625 C10.78101563 5.86324219 11.31984375 5.22257813 11.875 4.5625 C12.40867187 3.92441406 12.94234375 3.28632812 13.4921875 2.62890625 C15.46541651 0.49720549 16.47067087 0.02169382 19.3828125 -0.09765625 C20.28773438 -0.08605469 21.19265625 -0.07445312 22.125 -0.0625 C23.03507813 -0.05347656 23.94515625 -0.04445313 24.8828125 -0.03515625 C25.93082031 -0.01775391 25.93082031 -0.01775391 27 0 C27.04254356 1.99954746 27.04080783 4.00041636 27 6 C25.39507663 7.60492337 23.39192733 7.46715048 21.1875 7.8125 C17.98483446 8.43841324 16.20034609 8.85975773 13.5 10.75 C10.16323084 15.75515374 9.68416193 20.92997608 9.5859375 26.8046875 C9.56657135 27.5286673 9.5472052 28.25264709 9.5272522 28.99856567 C9.46790114 31.29059398 9.42125122 33.58267374 9.375 35.875 C9.33677913 37.43752081 9.29772506 39.00002148 9.2578125 40.5625 C9.16223692 44.37483465 9.07804394 48.1872678 9 52 C6.03 52 3.06 52 0 52 C0 34.84 0 17.68 0 0 Z " fill="#64CEE0" transform="translate(797,597)"/>
<path d="M0 0 C3.6875 0.3125 3.6875 0.3125 6.0625 2.1875 C9.95073463 7.27211451 9.11474775 13.14364218 8.6875 19.3125 C7.16955663 23.57719804 6.43846319 24.81185788 2.6875 27.3125 C-2.65795455 27.63977273 -2.65795455 27.63977273 -5.3125 26.3125 C-5.3125 29.9425 -5.3125 33.5725 -5.3125 37.3125 C-7.2925 37.3125 -9.2725 37.3125 -11.3125 37.3125 C-11.3125 25.4325 -11.3125 13.5525 -11.3125 1.3125 C-9.0025 1.3125 -6.6925 1.3125 -4.3125 1.3125 C-3.3125 0.3125 -3.3125 0.3125 0 0 Z " fill="#0A1517" transform="translate(610.3125,716.6875)"/>
<path d="M0 0 C3.76608577 2.45412966 6.56142736 4.68428207 8 9 C8.7352944 14.7613574 8.78966585 19.69519924 5.5625 24.6875 C3.68671262 26.84776698 2.52229868 27.84422671 -0.2265625 28.6640625 C-4.6447454 28.9448166 -6.50316524 28.40367825 -10 25.5625 C-10.66 24.716875 -11.32 23.87125 -12 23 C-12.33 22.67 -12.66 22.34 -13 22 C-13.15289263 19.75365446 -13.22197467 17.50136826 -13.25 15.25 C-13.27578125 14.01765625 -13.3015625 12.7853125 -13.328125 11.515625 C-12.90045401 6.93343578 -11.39968377 4.39968377 -8.1875 1.1875 C-5.09444953 -0.49158454 -3.48556084 -0.61509897 0 0 Z " fill="#091314" transform="translate(636,716)"/>
<path d="M0 0 C3.78360825 2.77979381 3.78360825 2.77979381 5 6 C5.86189129 12.59388673 6.17532379 19.48260785 2 25 C-1.34725336 27.62998478 -4.8824152 27.43342998 -9 27 C-12.53076426 24.80308001 -14.46008917 22.82933577 -16 19 C-16.71784252 12.82841882 -16.66083424 7.2297632 -13 2 C-9.48094841 -2.19579228 -4.84504197 -1.4914453 0 0 Z " fill="#091315" transform="translate(695,717)"/>
<path d="M0 0 C2.9228334 1.83100932 5.43323854 3.86647708 7 7 C8.04865305 20.40900619 8.04865305 20.40900619 5.0625 24.8125 C2.2838781 27.75952322 1.78940801 28.2011182 -2.25 28.375 C-6.10476085 28.35044738 -6.81160177 28.1491486 -10 25.625 C-12.98794237 21.70332564 -13.18325292 19.59897271 -13.25 14.6875 C-13.27578125 13.55699219 -13.3015625 12.42648437 -13.328125 11.26171875 C-12.88419878 6.84888071 -11.28530296 4.28530296 -8.1875 1.1875 C-5.1472735 -0.46290867 -3.42050168 -0.54728027 0 0 Z " fill="#060E0F" transform="translate(536,716)"/>
<path d="M0 0 C2.97 0 5.94 0 9 0 C9 17.16 9 34.32 9 52 C6.03 52 3.06 52 0 52 C0 34.84 0 17.68 0 0 Z " fill="#65D1E2" transform="translate(660,597)"/>
<path d="M0 0 C1.98 0 3.96 0 6 0 C6 2.97 6 5.94 6 9 C7.65 8.67 9.3 8.34 11 8 C10.86287598 8.52319824 10.72575195 9.04639648 10.58447266 9.58544922 C8.61924699 18.03222489 8.55294324 26.50216729 8.375 35.125 C8.33673324 36.66929076 8.29767677 38.21356216 8.2578125 39.7578125 C8.16277533 43.50502913 8.07840713 47.25239417 8 51 C5.36 51 2.72 51 0 51 C0 34.17 0 17.34 0 0 Z " fill="#6BDDF0" transform="translate(685,598)"/>
<path d="M0 0 C2.64 0 5.28 0 8 0 C8 16.83 8 33.66 8 51 C5.36 51 2.72 51 0 51 C0 34.17 0 17.34 0 0 Z " fill="#6CDEF1" transform="translate(494,598)"/>
<path d="M0 0 C3.73243704 0.07813475 4.55049273 0.33474455 7.6875 2.6875 C11.31535152 7.67579583 10.6875 9.86275326 10.6875 16.4375 C6.0675 16.4375 1.4475 16.4375 -3.3125 16.4375 C-2.9825 18.0875 -2.6525 19.7375 -2.3125 21.4375 C0.9875 21.4375 4.2875 21.4375 7.6875 21.4375 C8.0175 22.7575 8.3475 24.0775 8.6875 25.4375 C5.03137956 27.77741708 1.95542624 27.81187949 -2.3125 27.4375 C-5.8511994 25.78610695 -7.12320153 24.72144771 -9.3125 21.4375 C-9.61328125 18.2578125 -9.61328125 18.2578125 -9.625 14.5625 C-9.64175781 13.34820313 -9.65851563 12.13390625 -9.67578125 10.8828125 C-9.03904959 4.8441316 -6.36124439 0.18174984 0 0 Z " fill="#0C191B" transform="translate(477.3125,716.5625)"/>
<path d="M0 0 C2.31 0 4.62 0 7 0 C7.20496094 1.13179687 7.40992188 2.26359375 7.62109375 3.4296875 C7.89306972 4.91148761 8.16521387 6.39325685 8.4375 7.875 C8.57220703 8.62136719 8.70691406 9.36773438 8.84570312 10.13671875 C9.54536611 14.18533378 9.54536611 14.18533378 11 18 C12.32 12.06 13.64 6.12 15 0 C16.98 0 18.96 0 21 0 C19.90095143 11.80590878 18.34466961 27.65107387 9 36 C6 38 6 38 2 38 C1.625 35.75 1.625 35.75 2 33 C4.9375 30.8125 4.9375 30.8125 8 29 C8.33 28.34 8.66 27.68 9 27 C8.01 26.67 7.02 26.34 6 26 C5.10864258 23.82275391 5.10864258 23.82275391 4.39453125 20.9765625 C4.13349609 19.955625 3.87246094 18.9346875 3.60351562 17.8828125 C3.34248047 16.80773437 3.08144531 15.73265625 2.8125 14.625 C2.53986328 13.55765625 2.26722656 12.4903125 1.98632812 11.390625 C0 3.48513863 0 3.48513863 0 0 Z " fill="#0D1B1E" transform="translate(499,717)"/>
<path d="M0 0 C1.98 0 3.96 0 6 0 C6.33 0.66 6.66 1.32 7 2 C7.66 1.34 8.32 0.68 9 0 C15.18331774 -0.56211979 15.18331774 -0.56211979 17.7043457 1.1730957 C19.50108779 3.70654605 19.34195171 5.45704249 19.29296875 8.54296875 C19.28330078 9.61611328 19.27363281 10.68925781 19.26367188 11.79492188 C19.23853516 12.91447266 19.21339844 14.03402344 19.1875 15.1875 C19.16719727 16.88422852 19.16719727 16.88422852 19.14648438 18.61523438 C19.11109958 21.41063317 19.06172948 24.20507892 19 27 C17.02 27 15.04 27 13 27 C12.67 19.74 12.34 12.48 12 5 C11.01 5 10.02 5 9 5 C7.82530556 7.34938888 7.79965111 8.95073205 7.68359375 11.5703125 C7.64169922 12.46621094 7.59980469 13.36210938 7.55664062 14.28515625 C7.51732422 15.22230469 7.47800781 16.15945313 7.4375 17.125 C7.37272461 18.54232422 7.37272461 18.54232422 7.30664062 19.98828125 C7.20040928 22.32537092 7.09836824 24.6625683 7 27 C4.69 27 2.38 27 0 27 C0 18.09 0 9.18 0 0 Z " fill="#0F1F22" transform="translate(444,717)"/>
<path d="M0 0 C1.98 0 3.96 0 6 0 C6.33 7.26 6.66 14.52 7 22 C8.32 21.67 9.64 21.34 11 21 C11.33 14.07 11.66 7.14 12 0 C14.31 0 16.62 0 19 0 C19 8.91 19 17.82 19 27 C17.02 27 15.04 27 13 27 C12.67 26.34 12.34 25.68 12 25 C11.01 25.66 10.02 26.32 9 27 C6 27.375 6 27.375 3 27 C0.85082591 24.8310222 0.06341501 23.47768093 -0.34057617 20.43457031 C-0.32486572 19.49194336 -0.30915527 18.54931641 -0.29296875 17.578125 C-0.28330078 16.55332031 -0.27363281 15.52851562 -0.26367188 14.47265625 C-0.23853516 13.40917969 -0.21339844 12.34570312 -0.1875 11.25 C-0.17396484 10.17105469 -0.16042969 9.09210937 -0.14648438 7.98046875 C-0.11116584 5.3198058 -0.06184199 2.66015704 0 0 Z " fill="#102124" transform="translate(548,717)"/>
<path d="M0 0 C6.35563781 -0.48889522 6.35563781 -0.48889522 9.20996094 1.67675781 C11.39618296 4.5141949 11.46935771 5.87890304 11.390625 9.421875 C11.37128906 10.95908203 11.37128906 10.95908203 11.3515625 12.52734375 C11.31804688 13.59082031 11.28453125 14.65429688 11.25 15.75 C11.23195313 16.82894531 11.21390625 17.90789063 11.1953125 19.01953125 C11.14821415 21.68058788 11.082456 24.33984254 11 27 C8.69 27 6.38 27 4 27 C3.67 19.74 3.34 12.48 3 5 C1.02 5.99 1.02 5.99 -1 7 C-1.33 13.6 -1.66 20.2 -2 27 C-3.98 27 -5.96 27 -8 27 C-8 18.42 -8 9.84 -8 1 C-6.35 1 -4.7 1 -3 1 C-3 1.66 -3 2.32 -3 3 C-2.34 3 -1.68 3 -1 3 C-0.67 2.01 -0.34 1.02 0 0 Z " fill="#0F1F22" transform="translate(713,717)"/>
<path d="M0 0 C3.00742694 2.07670744 4.37624999 4.75249997 6 8 C6 10.64 6 13.28 6 16 C-2.91 16 -11.82 16 -21 16 C-19.98898838 9.93393027 -18.90944415 6.34060896 -15.0625 1.625 C-10.20319467 -0.95340691 -5.36729718 -1.00961607 0 0 Z " fill="#04090A" transform="translate(546,603)"/>
<path d="M0 0 C3.20267069 0.82136087 5.448146 2.4168886 7.96484375 4.50390625 C9.69982491 7.97386857 9.57278556 11.7189782 8.96484375 15.50390625 C6.52734375 18.50390625 6.52734375 18.50390625 3.96484375 20.50390625 C3.63484375 20.83390625 3.30484375 21.16390625 2.96484375 21.50390625 C-0.11019195 22.00582323 -2.96840734 22.07240222 -6.03515625 21.50390625 C-9.5616395 18.82608602 -11.76538648 15.16106339 -12.47265625 10.81640625 C-11.93453339 6.74204743 -10.65850995 4.82379427 -7.87890625 1.8671875 C-5.218616 -0.09984915 -3.24537292 -0.29276877 0 0 Z " fill="#050B0C" transform="translate(919.03515625,689.49609375)"/>
<path d="M0 0 C3.90219612 0.05633092 6.33392335 0.29804882 9.375 2.8125 C13.99465612 7.91843571 12.75 7.91403035 12.75 16.4375 C4.17 16.4375 -4.41 16.4375 -13.25 16.4375 C-12.13095238 6.36607143 -12.13095238 6.36607143 -7.25 2.4375 C-4.69426183 -0.11823817 -3.55301573 0.08251539 0 0 Z " fill="#04090A" transform="translate(763.25,602.5625)"/>
<path d="M0 0 C1.98828125 0.75 1.98828125 0.75 3.2578125 2.8125 C3.49886719 3.451875 3.73992188 4.09125 3.98828125 4.75 C0.91505581 5.66058531 -1.81269236 5.83886184 -5.01171875 5.75 C-4.90558039 8.20224694 -4.90558039 8.20224694 -4.01171875 10.75 C-1.68317412 11.94838209 -1.68317412 11.94838209 0.98828125 12.75 C3.30078125 13.875 3.30078125 13.875 4.98828125 15.75 C5.69479915 20.61712332 5.72573717 22.60813276 3.05078125 26.75 C-1.03592928 29.41887218 -4.25230109 29.60243301 -9.01171875 28.75 C-11.57421875 27.25 -11.57421875 27.25 -13.01171875 25.75 C-12.35171875 24.43 -11.69171875 23.11 -11.01171875 21.75 C-8.04171875 22.08 -5.07171875 22.41 -2.01171875 22.75 C-2.04265048 20.33414426 -2.04265048 20.33414426 -3.01171875 17.75 C-4.97638288 16.68224776 -6.98027234 15.68446535 -9.01171875 14.75 C-11.68508666 12.25485662 -11.98715778 10.9219268 -12.51171875 7.25 C-12.01171875 3.75 -12.01171875 3.75 -10.07421875 1.25 C-6.34929404 -0.57445292 -4.04034923 -0.43459219 0 0 Z " fill="#0C191B" transform="translate(671.01171875,716.25)"/>
<path d="M0 0 C1.98 0 3.96 0 6 0 C6.33 0.66 6.66 1.32 7 2 C7.66 1.34 8.32 0.68 9 0 C10.32 0 11.64 0 13 0 C13 1.98 13 3.96 13 6 C11.35 6.66 9.7 7.32 8 8 C7.67 14.27 7.34 20.54 7 27 C4.69 27 2.38 27 0 27 C0 18.09 0 9.18 0 0 Z " fill="#0E1D1F" transform="translate(572,717)"/>
<path d="M0 0 C1.65 0 3.3 0 5 0 C5 0.99 5 1.98 5 3 C5.66 3 6.32 3 7 3 C7.02888146 6.31248187 7.04675799 9.62493167 7.0625 12.9375 C7.07087891 13.88302734 7.07925781 14.82855469 7.08789062 15.80273438 C7.09111328 16.70185547 7.09433594 17.60097656 7.09765625 18.52734375 C7.10289307 19.35999756 7.10812988 20.19265137 7.11352539 21.05053711 C7 23 7 23 6 24 C5.76572222 26.01594582 5.58663876 28.038474 5.4375 30.0625 C5.35371094 31.16722656 5.26992188 32.27195312 5.18359375 33.41015625 C5.12300781 34.26480469 5.06242188 35.11945312 5 36 C3.35 36 1.7 36 0 36 C0 24.12 0 12.24 0 0 Z " fill="#020404" transform="translate(599,718)"/>
<path d="M0 0 C2.31 0 4.62 0 7 0 C7 8.91 7 17.82 7 27 C4.69 27 2.38 27 0 27 C0 18.09 0 9.18 0 0 Z " fill="#112427" transform="translate(648,717)"/>
<path d="M0 0 C2.31 0 4.62 0 7 0 C7 8.91 7 17.82 7 27 C4.69 27 2.38 27 0 27 C0 18.09 0 9.18 0 0 Z " fill="#102123" transform="translate(432,717)"/>
<path d="M0 0 C6.46252299 -0.36580319 6.46252299 -0.36580319 8.7121582 1.1652832 C10.49493841 3.70511131 10.34192018 5.45902842 10.29296875 8.54296875 C10.28330078 9.61611328 10.27363281 10.68925781 10.26367188 11.79492188 C10.23853516 12.91447266 10.21339844 14.03402344 10.1875 15.1875 C10.17396484 16.31865234 10.16042969 17.44980469 10.14648438 18.61523438 C10.11109958 21.41063317 10.06172948 24.20507892 10 27 C8.02 27 6.04 27 4 27 C3.67 19.74 3.34 12.48 3 5 C1.68 4.67 0.36 4.34 -1 4 C-0.67 2.68 -0.34 1.36 0 0 Z " fill="#060E0F" transform="translate(453,717)"/>
<path d="M0 0 C1.98 0 3.96 0 6 0 C6.33 7.26 6.66 14.52 7 22 C9.475 22.99 9.475 22.99 12 24 C10.10442866 26.52742845 9.19410622 26.97169284 6 27.4375 C3 27 3 27 1.33081055 25.31152344 C-0.28489417 22.50515906 -0.34667198 20.8003188 -0.29296875 17.578125 C-0.28330078 16.55332031 -0.27363281 15.52851562 -0.26367188 14.47265625 C-0.23853516 13.40917969 -0.21339844 12.34570312 -0.1875 11.25 C-0.17396484 10.17105469 -0.16042969 9.09210937 -0.14648438 7.98046875 C-0.11116584 5.3198058 -0.06184199 2.66015704 0 0 Z " fill="#070E0F" transform="translate(548,717)"/>
<path d="M0 0 C2.31 0 4.62 0 7 0 C7 0.33 7 0.66 7 1 C5.576875 1.37125 5.576875 1.37125 4.125 1.75 C0.97836823 2.66299587 0.97836823 2.66299587 -0.16943359 4.78027344 C-1.0817087 7.21837022 -1.3141585 9.16812113 -1.4140625 11.765625 C-1.45273437 12.65507813 -1.49140625 13.54453125 -1.53125 14.4609375 C-1.5621875 15.38132812 -1.593125 16.30171875 -1.625 17.25 C-1.68300781 18.65378906 -1.68300781 18.65378906 -1.7421875 20.0859375 C-1.83624844 22.39043054 -1.92189399 24.69492013 -2 27 C-3.98 27 -5.96 27 -8 27 C-8 18.42 -8 9.84 -8 1 C-6.35 1 -4.7 1 -3 1 C-3 1.66 -3 2.32 -3 3 C-2.34 3 -1.68 3 -1 3 C-0.67 2.01 -0.34 1.02 0 0 Z " fill="#04090A" transform="translate(713,717)"/>
<path d="M0 0 C4.875 0.875 4.875 0.875 6 2 C6.12586907 4.2890608 6.17577971 6.58251118 6.1875 8.875 C6.20167969 10.13054688 6.21585938 11.38609375 6.23046875 12.6796875 C6 16 6 16 4 19 C-0.875 18.125 -0.875 18.125 -2 17 C-2.12602054 14.89868079 -2.1757922 12.79256212 -2.1875 10.6875 C-2.20167969 9.53636719 -2.21585938 8.38523437 -2.23046875 7.19921875 C-2.01267006 4.17587763 -1.5831811 2.53434129 0 0 Z " fill="#63CCDE" transform="translate(631,721)"/>
<path d="M0 0 C4.875 0.875 4.875 0.875 6 2 C6.12586907 4.2890608 6.17577971 6.58251118 6.1875 8.875 C6.20167969 10.13054688 6.21585938 11.38609375 6.23046875 12.6796875 C6 16 6 16 4 19 C-0.875 18.125 -0.875 18.125 -2 17 C-2.12602054 14.89868079 -2.1757922 12.79256212 -2.1875 10.6875 C-2.20167969 9.53636719 -2.21585938 8.38523437 -2.23046875 7.19921875 C-2.01267006 4.17587763 -1.5831811 2.53434129 0 0 Z " fill="#63CCDE" transform="translate(531,721)"/>
<path d="M0 0 C1.32 0 2.64 0 4 0 C6.29000466 3.43500699 6.29748064 4.88728019 6.3125 8.9375 C6.32925781 9.97777344 6.34601562 11.01804687 6.36328125 12.08984375 C5.95574403 15.35452359 5.39429784 16.75703475 3 19 C1.68 19 0.36 19 -1 19 C-2.16903873 15.49288381 -2.16839619 12.63217614 -2.1875 8.9375 C-2.20167969 7.68839844 -2.21585938 6.43929687 -2.23046875 5.15234375 C-2 2 -2 2 0 0 Z " fill="#63CCDD" transform="translate(688,721)"/>
<path d="M0 0 C2.625 0.375 2.625 0.375 5 1 C5.05382106 3.62527189 5.09358313 6.24944713 5.125 8.875 C5.14175781 9.62136719 5.15851562 10.36773438 5.17578125 11.13671875 C5.1933959 13.09194461 5.10320189 15.04742021 5 17 C4.34 17.66 3.68 18.32 3 19 C-0.53571429 18.46428571 -0.53571429 18.46428571 -2 17 C-2.12653198 14.50761431 -2.18519825 12.05529559 -2.1875 9.5625 C-2.19974609 8.86833984 -2.21199219 8.17417969 -2.22460938 7.45898438 C-2.22989842 5.63779099 -2.12169207 3.8171308 -2 2 C-1.34 1.34 -0.68 0.68 0 0 Z " fill="#65D0E2" transform="translate(607,721)"/>
<path d="M0 0 C0.68465332 0.12955078 1.36930664 0.25910156 2.07470703 0.39257812 C1.45595703 0.47507812 0.83720703 0.55757812 0.19970703 0.64257812 C-2.62258741 1.63868204 -2.61916876 2.76567432 -3.92529297 5.39257812 C-5.53250122 7.24029541 -5.53250122 7.24029541 -7.45703125 9.15136719 C-8.17762726 9.87181213 -8.89822327 10.59225708 -9.64065552 11.33453369 C-10.417789 12.1013446 -11.19492249 12.86815552 -11.99560547 13.65820312 C-12.79183319 14.45160095 -13.58806091 15.24499878 -14.40841675 16.06243896 C-16.95105245 18.59388516 -19.50055645 21.11828616 -22.05029297 23.64257812 C-23.7760105 25.35826429 -25.50127652 27.07440474 -27.22607422 28.79101562 C-31.45392328 32.9968206 -35.68743166 37.19686319 -39.92529297 41.39257812 C-39.92529297 37.75584104 -39.25378127 37.27689799 -36.8671875 34.6640625 C-36.22525452 33.95789795 -35.58332153 33.2517334 -34.92193604 32.52416992 C-29.98534468 27.25392517 -24.93790502 22.10020796 -19.85449219 16.97167969 C-18.47608618 15.57656374 -17.10308865 14.17608487 -15.73535156 12.77050781 C-13.74550604 10.72611349 -11.73989978 8.6984667 -9.72998047 6.67382812 C-9.1215329 6.04271118 -8.51308533 5.41159424 -7.88619995 4.76135254 C-3.58469526 0.48107077 -3.58469526 0.48107077 0 0 Z " fill="#58B5C5" transform="translate(969.92529296875,569.607421875)"/>
<path d="M0 0 C3.625 0.1875 3.625 0.1875 6.625 2.1875 C7 5.6875 7 5.6875 6.625 9.1875 C2.94503497 11.64081002 0.97086828 11.58257893 -3.375 11.1875 C-5.375 8.1875 -5.375 8.1875 -5.0625 4.5625 C-4.18041103 0.23224506 -4.18041103 0.23224506 0 0 Z " fill="#65D0E1" transform="translate(497.375,573.8125)"/>
<path d="M0 0 C3.5 0.25 3.5 0.25 5.5 2.25 C5.75 5.75 5.75 5.75 5.5 9.25 C3.5 11.25 3.5 11.25 0.5625 11.5 C-2.5 11.25 -2.5 11.25 -5.5 9.25 C-5.8125 5.75 -5.8125 5.75 -5.5 2.25 C-3.5 0.25 -3.5 0.25 0 0 Z " fill="#67D4E6" transform="translate(664.5,573.75)"/>
<path d="M0 0 C0.66 0.33 1.32 0.66 2 1 C-10.54 13.54 -23.08 26.08 -36 39 C-36.66 38.67 -37.32 38.34 -38 38 C-37.57589844 37.5875 -37.15179688 37.175 -36.71484375 36.75 C-33.63906838 33.72154425 -30.66911242 30.66631037 -27.875 27.375 C-20.76813007 19.14514837 -12.89910341 11.37348017 -4.5859375 4.3671875 C-2.97717593 2.98032408 -1.48334641 1.51930632 0 0 Z " fill="#14292D" transform="translate(371,332)"/>
<path d="M0 0 C0.66 0.33 1.32 0.66 2 1 C-4.19586967 8.44235105 -11.0722535 15.18615315 -17.9375 22 C-19.11026009 23.16773374 -20.28278798 24.33570074 -21.45507812 25.50390625 C-24.30071689 28.33863234 -27.14947453 31.17018824 -30 34 C-30.33 33.34 -30.66 32.68 -31 32 C-24.94373536 24.74491663 -18.26365431 18.14877838 -11.5625 11.5 C-10.4379167 10.38044368 -9.31356595 9.26065371 -8.18945312 8.140625 C-5.46230656 5.42438466 -2.73204093 2.71131708 0 0 Z " fill="#102225" transform="translate(969,583)"/>
<path d="M0 0 C0.66 0.33 1.32 0.66 2 1 C-8.89 11.89 -19.78 22.78 -31 34 C-31.66 33.67 -32.32 33.34 -33 33 C-32.57589844 32.5875 -32.15179688 32.175 -31.71484375 31.75 C-31.12832031 31.1725 -30.54179687 30.595 -29.9375 30 C-29.36902344 29.443125 -28.80054688 28.88625 -28.21484375 28.3125 C-26.32174484 26.33593112 -24.54785954 24.31654715 -22.76953125 22.23828125 C-19.02054024 17.9261671 -14.95408639 14.05039654 -10.75 10.1875 C-9.34861951 8.88968869 -7.94756508 7.59152518 -6.546875 6.29296875 C-5.93682617 5.7311792 -5.32677734 5.16938965 -4.69824219 4.59057617 C-3.09789283 3.09168657 -1.54073999 1.55986682 0 0 Z " fill="#59B8C8" transform="translate(360,323)"/>
<path d="M0 0 C0.33 0 0.66 0 1 0 C1 18.15 1 36.3 1 55 C0.67 55 0.34 55 0 55 C-0.33 39.16 -0.66 23.32 -1 7 C-1.66 7 -2.32 7 -3 7 C-1.125 1.125 -1.125 1.125 0 0 Z " fill="#0E1E21" transform="translate(357,594)"/>
<path d="M0 0 C2.625 0.375 2.625 0.375 5 1 C5 2.98 5 4.96 5 7 C2.69 7 0.38 7 -2 7 C-2.125 4.625 -2.125 4.625 -2 2 C-1.34 1.34 -0.68 0.68 0 0 Z " fill="#64CEDF" transform="translate(476,721)"/>
<path d="M0 0 C2.5 0.125 2.5 0.125 3.5 1.125 C3.625 3.625 3.625 3.625 3.5 6.125 C2.5 7.125 2.5 7.125 0 7.25 C-2.5 7.125 -2.5 7.125 -3.5 6.125 C-3.625 3.625 -3.625 3.625 -3.5 1.125 C-2.5 0.125 -2.5 0.125 0 0 Z " fill="#0D1D1F" transform="translate(651.5,703.875)"/>
<path d="M0 0 C2.5 0.125 2.5 0.125 3.5 1.125 C3.625 3.625 3.625 3.625 3.5 6.125 C2.5 7.125 2.5 7.125 0 7.25 C-2.5 7.125 -2.5 7.125 -3.5 6.125 C-3.625 3.625 -3.625 3.625 -3.5 1.125 C-2.5 0.125 -2.5 0.125 0 0 Z " fill="#0E1D20" transform="translate(435.5,703.875)"/>
<path d="M0 0 C0.33 0 0.66 0 1 0 C1.66 1.98 2.32 3.96 3 6 C3.61875 5.175 4.2375 4.35 4.875 3.5 C5.57625 2.675 6.2775 1.85 7 1 C7.66 1 8.32 1 9 1 C7.55873214 4.36295835 5.79407345 6.62927102 3 9 C2.01 9 1.02 9 0 9 C0 6.03 0 3.06 0 0 Z " fill="#52AAB9" transform="translate(691,598)"/>
<path d="M0 0 C-1.40844718 3.21524305 -3.10344786 5.32183868 -5.625 7.75 C-6.57246094 8.67039062 -6.57246094 8.67039062 -7.5390625 9.609375 C-8.02117188 10.06828125 -8.50328125 10.5271875 -9 11 C-9 7.25983417 -8.0658409 6.54723807 -5.625 3.8125 C-4.99851562 3.09707031 -4.37203125 2.38164063 -3.7265625 1.64453125 C-2 0 -2 0 0 0 Z " fill="#5AB9C9" transform="translate(753,599)"/>
<path d="M0 0 C-1.38188453 3.21043882 -2.92421903 5.04936365 -5.625 7.25 C-6.57246094 8.03117188 -6.57246094 8.03117188 -7.5390625 8.828125 C-8.02117188 9.21484375 -8.50328125 9.6015625 -9 10 C-7.6834994 5.81113445 -4.97532335 0 0 0 Z " fill="#58B5C4" transform="translate(908,682)"/>
<path d="M0 0 C2.97 0 5.94 0 9 0 C8.67 1.98 8.34 3.96 8 6 C7.67 4.68 7.34 3.36 7 2 C4.69 2.33 2.38 2.66 0 3 C0 2.01 0 1.02 0 0 Z " fill="#4EA1AF" transform="translate(473,597)"/>
<path d="M0 0 C0 0.33 0 0.66 0 1 C-1.65 1.33 -3.3 1.66 -5 2 C-4.67 2.66 -4.34 3.32 -4 4 C-7.75 5.125 -7.75 5.125 -10 4 C-10 3.34 -10 2.68 -10 2 C-6.3558226 -0.4294516 -4.28758728 -0.16179575 0 0 Z " fill="#0F2023" transform="translate(614,717)"/>
<path d="M0 0 C-1.49097658 3.7952131 -3.75700849 5.61042731 -7 8 C-4.18918919 0 -4.18918919 0 0 0 Z " fill="#173034" transform="translate(534,604)"/>
<path d="M0 0 C0.33 0 0.66 0 1 0 C1 2.64 1 5.28 1 8 C-0.32 7.67 -1.64 7.34 -3 7 C-1.125 1.125 -1.125 1.125 0 0 Z " fill="#183236" transform="translate(357,594)"/>
<path d="M0 0 C2.31 0 4.62 0 7 0 C7 0.33 7 0.66 7 1 C6.030625 1.268125 5.06125 1.53625 4.0625 1.8125 C3.051875 2.204375 2.04125 2.59625 1 3 C0.67 3.99 0.34 4.98 0 6 C-0.33 5.34 -0.66 4.68 -1 4 C-1.66 3.67 -2.32 3.34 -3 3 C-2.34 3 -1.68 3 -1 3 C-0.67 2.01 -0.34 1.02 0 0 Z " fill="#12272A" transform="translate(713,717)"/>
<path d="M0 0 C0.66 0.33 1.32 0.66 2 1 C0.38405168 3.04119788 -1.2856382 5.04072937 -3 7 C-3.66 7 -4.32 7 -5 7 C-3.70700306 4.11562221 -2.34058637 2.12780579 0 0 Z " fill="#54AEBC" transform="translate(812,598)"/>
<path d="M0 0 C2.29633824 3.44450737 2.54016485 5.93812283 3 10 C2.67 9.34 2.34 8.68 2 8 C1.34 8 0.68 8 0 8 C0 5.36 0 2.72 0 0 Z " fill="#59B9C8" transform="translate(405,721)"/>
</svg>
